<?xml version="1.0" encoding="UTF-8" standalone="no"?>
<!-- Created with Inkscape (http://www.inkscape.org/) -->
<svg id="svg2" xmlns:rdf="http://www.w3.org/1999/02/22-rdf-syntax-ns#" xmlns="http://www.w3.org/2000/svg" xml:space="preserve" height="36" width="20" version="1.1" xmlns:cc="http://creativecommons.org/ns#" xmlns:dc="http://purl.org/dc/elements/1.1/"><metadata id="metadata8"><rdf:RDF><cc:Work rdf:about=""><dc:format>image/svg+xml</dc:format><dc:type rdf:resource="http://purl.org/dc/dcmitype/StillImage"/><dc:title/></cc:Work></rdf:RDF></metadata><defs id="defs6"><clipPath id="clipPath16"><path id="path18" d="m0 26.474h17.174v-26.474h-17.174v26.474z"/></clipPath></defs><g id="g10" fill="#523829" transform="matrix(2.5 0 0 -2.0455 -0.0000183 36)"><g id="g12" fill="#523829" transform="matrix(-.46582 0 0 -.6648 8 17.6)"><g id="g14" fill="#523829" clip-path="url(#clipPath16)"><g id="g20" fill="#523829" transform="translate(0 .5435)"><path id="path22" fill="#523829" d="m0 0v2.085l12.908 10.182c0.127 0.105 0.203 0.261 0.203 0.428 0 0.164-0.076 0.322-0.203 0.426l-12.908 10.182v2.086c0 0.207 0.119 0.398 0.305 0.487 0.187 0.091 0.412 0.068 0.574-0.063l16.092-12.692c0.127-0.104 0.203-0.262 0.203-0.426 0-0.167-0.076-0.323-0.203-0.428l-16.092-12.694c-0.162-0.13-0.387-0.152-0.574-0.062-0.186 0.089-0.305 0.281-0.305 0.489"/></g></g></g></g></svg>
