<?xml version="1.0" encoding="utf-8"?>
<!-- Generator: Adobe Illustrator 16.0.2, SVG Export Plug-In . SVG Version: 6.00 Build 0)  -->
<!DOCTYPE svg PUBLIC "-//W3C//DTD SVG 1.1//EN" "http://www.w3.org/Graphics/SVG/1.1/DTD/svg11.dtd">
<svg version="1.1" id="Layer_1" xmlns="http://www.w3.org/2000/svg" xmlns:xlink="http://www.w3.org/1999/xlink" x="0px" y="0px"
	 width="394.5px" height="394.5px" viewBox="0 0 394.5 394.5" style="enable-background:new 0 0 394.5 394.5;" xml:space="preserve"
	>
<g>
	<defs>
		<rect id="SVGID_1_" width="394.5" height="394.5"/>
	</defs>
	<clipPath id="SVGID_2_">
		<use xlink:href="#SVGID_1_"  style="overflow:visible;"/>
	</clipPath>
	<path style="clip-path:url(#SVGID_2_);fill:#634E42;" d="M373,197.2l-0.6-13.2c7.5-3.1,15-6.5,22.1-10.2
		c-1.3-10.3-3.2-20.5-6.1-30.4c-8.1-0.7-16-1.1-24.2-1l-4.6-12.5c-1.7-4.1-3.7-8-5.6-12c5.7-5.7,11.3-11.8,16.5-17.9
		c-5.1-9-10.8-17.6-17.3-25.7c-7.7,2.4-15.2,5.2-22.8,8.4l-8.9-9.8l-9.8-8.9c3.2-7.5,5.9-15.1,8.4-22.8
		c-8.1-6.5-16.7-12.1-25.7-17.3c-6.1,5.1-12.2,10.8-17.9,16.5c-4-1.9-7.9-3.9-12-5.6l-12.5-4.6c0-8.2-0.3-16.1-1-24.2
		c-10-2.9-20.1-4.8-30.4-6.1c-3.7,7.1-7.1,14.6-10.2,22.1l-13.2-0.6L184,22.1c-3.1-7.5-6.5-15-10.2-22.1
		c-10.3,1.3-20.5,3.2-30.4,6.1c-0.7,8.1-1.1,16-1,24.2L130,34.8c-4.1,1.7-8,3.7-12,5.6c-5.7-5.7-11.8-11.4-17.9-16.5
		c-9,5.1-17.6,10.8-25.7,17.3c2.4,7.7,5.2,15.2,8.4,22.8l-9.8,8.9L64,82.7c-7.5-3.2-15.1-5.9-22.8-8.4c-6.5,8.1-12.1,16.7-17.3,25.7
		c5.1,6.1,10.8,12.2,16.5,17.9c-1.9,4-3.9,7.9-5.6,12l-4.6,12.5c-8.2,0-16.1,0.3-24.2,1c-2.9,10-4.8,20.1-6.1,30.4
		c7.1,3.7,14.6,7.1,22.1,10.2l-0.6,13.2l0.6,13.2c-7.5,3.1-15,6.5-22.1,10.2c1.3,10.3,3.2,20.5,6.1,30.4c8.1,0.7,16,1.1,24.2,1
		l4.6,12.5c1.7,4.1,3.7,8,5.6,12c-5.7,5.7-11.3,11.8-16.5,17.9c5.1,9,10.8,17.6,17.3,25.7c7.7-2.4,15.2-5.2,22.8-8.4l8.9,9.8
		l9.8,8.9c-3.2,7.5-5.9,15.1-8.4,22.8c8.1,6.5,16.7,12.1,25.7,17.3c6.1-5.1,12.2-10.8,17.9-16.5c4,1.9,7.9,3.9,12,5.6l12.5,4.6
		c0,8.2,0.3,16.1,1,24.2c10,2.9,20.1,4.8,30.4,6.1c3.7-7.1,7.1-14.6,10.2-22.1l13.2,0.6l13.2-0.6c3.1,7.5,6.5,15,10.2,22.1
		c10.3-1.3,20.5-3.2,30.4-6.1c0.7-8.1,1.1-16,1-24.2l12.5-4.6c4.1-1.7,8-3.7,12-5.6c5.7,5.7,11.8,11.4,17.9,16.5
		c9-5.1,17.6-10.8,25.7-17.3c-2.4-7.7-5.2-15.2-8.4-22.8l9.8-8.9l8.9-9.8c7.5,3.2,15.1,5.9,22.8,8.4c6.5-8.1,12.1-16.7,17.3-25.7
		c-5.1-6.1-10.8-12.2-16.5-17.9c1.9-4,3.9-7.9,5.6-12l4.6-12.5c8.2,0,16.1-0.3,24.2-1c2.9-10,4.8-20.1,6.1-30.4
		c-7.1-3.7-14.6-7.1-22.1-10.2L373,197.2z M283.4,283.4c-11.3,11.3-24.8,20.3-39.5,26.4c-14.7,6.1-30.6,9.2-46.6,9.3
		c-16,0-31.9-3.2-46.6-9.3c-14.7-6.1-28.2-15.1-39.5-26.4c-11.3-11.3-20.3-24.8-26.4-39.5c-6.1-14.7-9.2-30.6-9.3-46.6
		c0-16,3.2-31.9,9.3-46.6c6.1-14.7,15.1-28.2,26.4-39.6c11.3-11.3,24.8-20.3,39.5-26.4c14.7-6.1,30.6-9.2,46.6-9.3
		c16,0,31.9,3.2,46.6,9.3c14.7,6.1,28.2,15.1,39.5,26.4c11.3,11.3,20.3,24.8,26.4,39.6c6.1,14.7,9.2,30.6,9.3,46.6
		c0,16-3.2,31.9-9.3,46.6C303.7,258.6,294.7,272.1,283.4,283.4"/>
	<path style="clip-path:url(#SVGID_2_);fill:#A48A7B;" d="M304.2,152.9c-5.8-14-14.4-26.8-25.1-37.6c-10.8-10.7-23.6-19.3-37.6-25.1
		c-14-5.8-29.1-8.8-44.3-8.8c-15.3,0-30.3,3-44.3,8.8c-14,5.8-26.8,14.4-37.6,25.1c-10.7,10.8-19.3,23.6-25.1,37.6
		c-5.8,14-8.8,29.1-8.8,44.3c0,15.3,3,30.3,8.8,44.3c5.8,14,14.4,26.8,25.1,37.6c10.8,10.7,23.6,19.3,37.6,25.1
		c14,5.8,29.1,8.8,44.3,8.8c15.3,0,30.3-3,44.3-8.8c14-5.8,26.8-14.4,37.6-25.1c10.7-10.8,19.3-23.6,25.1-37.6
		c5.8-14,8.8-29.1,8.8-44.3C313,182,310,166.9,304.2,152.9 M269.6,269.6c-9.5,9.5-20.9,17.1-33.2,22.2c-12.3,5.1-25.6,7.7-39.1,7.8
		c-13.5-0.1-26.8-2.7-39.1-7.8c-12.3-5.1-23.7-12.7-33.2-22.2c-9.5-9.5-17.1-20.9-22.2-33.2c-5.1-12.3-7.7-25.6-7.8-39.1
		c0-13.5,2.7-26.8,7.8-39.1c5.1-12.3,12.7-23.7,22.2-33.2c9.5-9.5,20.9-17.1,33.2-22.2c12.3-5.1,25.6-7.7,39.1-7.8
		c13.5,0,26.8,2.7,39.1,7.8c12.3,5.1,23.7,12.7,33.2,22.2c9.5,9.5,17.1,20.9,22.2,33.2c5.1,12.3,7.7,25.6,7.8,39.1
		c0,13.5-2.7,26.8-7.8,39.1C286.6,248.7,279.1,260.1,269.6,269.6"/>
</g>
<g>
	<defs>
		<path id="SVGID_3_" d="M173.5,292.1l14.7-4.2c0,0-27.3-16.8-8.4-60.8C179.7,227.1,147.2,257.5,173.5,292.1"/>
	</defs>
	<clipPath id="SVGID_4_">
		<use xlink:href="#SVGID_3_"  style="overflow:visible;"/>
	</clipPath>
	
		<linearGradient id="SVGID_5_" gradientUnits="userSpaceOnUse" x1="0" y1="394.4316" x2="1" y2="394.4316" gradientTransform="matrix(3.2233 244.9214 244.9214 -3.2233 -96439.6172 1361.9426)">
		<stop  offset="0" style="stop-color:#A2C740"/>
		<stop  offset="5.617980e-003" style="stop-color:#A2C740"/>
		<stop  offset="1" style="stop-color:#548E33"/>
	</linearGradient>
	<polygon style="clip-path:url(#SVGID_4_);fill:url(#SVGID_5_);" points="188.1,226.6 189,292.1 147.3,292.7 146.4,227.1 	"/>
</g>
<g>
	<defs>
		<path id="SVGID_6_" d="M181.4,211.4l49.8-37.4L190,221.6c77.4,51.6,84.5-90.9,84.5-90.9C128.8,149.3,181.4,211.4,181.4,211.4"/>
	</defs>
	<clipPath id="SVGID_7_">
		<use xlink:href="#SVGID_6_"  style="overflow:visible;"/>
	</clipPath>
	
		<linearGradient id="SVGID_8_" gradientUnits="userSpaceOnUse" x1="0" y1="394.375" x2="1" y2="394.375" gradientTransform="matrix(3.2235 244.9339 244.9339 -3.2235 -96395.4297 1361.2576)">
		<stop  offset="0" style="stop-color:#A2C740"/>
		<stop  offset="5.617980e-003" style="stop-color:#A2C740"/>
		<stop  offset="1" style="stop-color:#548E33"/>
	</linearGradient>
	<polygon style="clip-path:url(#SVGID_7_);fill:url(#SVGID_8_);" points="274.5,128.8 276.4,273.1 128.8,275.1 126.9,130.7 	"/>
</g>
<g>
	<defs>
		<path id="SVGID_9_" d="M97.3,184.2c29,92.1,63,50.9,63,50.9l-30-27.8l35.6,21.1c17.1-39.3-23.5-45.2-49.3-45.2
			C105.6,183.1,97.3,184.2,97.3,184.2"/>
	</defs>
	<clipPath id="SVGID_10_">
		<use xlink:href="#SVGID_9_"  style="overflow:visible;"/>
	</clipPath>
	
		<linearGradient id="SVGID_11_" gradientUnits="userSpaceOnUse" x1="0" y1="394.4902" x2="1" y2="394.4902" gradientTransform="matrix(3.2235 244.9377 244.9377 -3.2235 -96487.0625 1362.5273)">
		<stop  offset="0" style="stop-color:#A2C740"/>
		<stop  offset="5.617980e-003" style="stop-color:#A2C740"/>
		<stop  offset="1" style="stop-color:#548E33"/>
	</linearGradient>
	<polygon style="clip-path:url(#SVGID_10_);fill:url(#SVGID_11_);" points="183,182 184.2,276.3 97.3,277.4 96,183.1 	"/>
</g>
<g>
	<defs>
		<rect id="SVGID_12_" width="394.5" height="394.5"/>
	</defs>
	<clipPath id="SVGID_13_">
		<use xlink:href="#SVGID_12_"  style="overflow:visible;"/>
	</clipPath>
	<path style="clip-path:url(#SVGID_13_);fill:#FFFFFF;" d="M61.4,169.2c1.3,0.2,2.5,0.6,3.5,1.3c1,0.7,1.6,1.6,1.9,2.8
		c0.3,1.4,0.3,3.4-0.1,6.2l-0.5,3.7l-1.2,0.7c-3.6-0.7-7.3-1.3-11-1.8c-3.1-0.4-5.9-0.8-8.5-1l-0.9-1c0.4-1.8,0.7-3.5,1-5.3
		c0.3-2.2,0.5-4.2,0.6-5.9l2.4,1.3c-0.4,1.9-0.7,3.2-0.8,4l-0.3,2l5.2,1.1C53.6,171.1,56.5,168.5,61.4,169.2 M60.2,173.7
		c-3.1-0.4-5.1,0.8-5.9,3.6l3,0.4c1.5,0.2,4,0.5,7.7,0.8C65,175.8,63.4,174.2,60.2,173.7"/>
	<path style="clip-path:url(#SVGID_13_);fill:#FFFFFF;" d="M57.8,151.7c4,1.1,5.3,4.1,4.1,9.2c1.8,0.4,4,0.9,6.4,1.2
		c-0.2,0.6-0.4,1.3-0.6,2c-0.2,0.7-0.3,1.3-0.4,2l-0.9,0.5c-3-0.9-5.7-1.7-8.2-2.3c-2.5-0.7-5.2-1.3-8-2l-0.7-1
		c0.1-0.5,0.3-1.3,0.6-2.4c0.3-1,0.5-1.8,0.6-2.4c0.2-0.9,0.4-1.5,0.6-1.9c0.2-0.5,0.6-1,1-1.5C53.7,151.6,55.5,151.1,57.8,151.7
		 M57.2,155.7c-2.6-0.7-4.4,0.1-5.3,2.4c2.1,0.7,5,1.5,8.7,2.5C60.8,158,59.7,156.4,57.2,155.7"/>
	<path style="clip-path:url(#SVGID_13_);fill:#FFFFFF;" d="M75.9,138.6l0.6,1c-0.3,0.5-0.5,1.1-0.8,1.8c-0.3,0.7-0.5,1.2-0.5,1.6
		c-1.9-0.9-4.4-2-7.6-3.3l-3.5-1.4l0,0.1l9.1,9.9c-0.4,0.7-0.9,1.8-1.5,3.2l-1,0.4c-2.8-1.3-5.4-2.4-7.8-3.3c-2.4-1-5-2-7.7-3
		l-0.5-1c0.2-0.3,0.5-0.9,0.8-1.6c0.2-0.6,0.4-1.1,0.6-1.7l5.5,2.2c1.7,0.7,3.9,1.7,6.4,2.9l0-0.1l-5.9-6.4
		c-0.9-0.9-2.2-2.3-3.8-4.3c0.4-0.7,0.8-1.7,1.3-3l0.9-0.2c2.3,1.1,4.9,2.2,7.6,3.3C70.8,136.7,73.4,137.7,75.9,138.6"/>
	<path style="clip-path:url(#SVGID_13_);fill:#FFFFFF;" d="M83.5,121.3c0.2,1.1,0.5,2.7,1.1,4.6c-4.1-0.2-8.3-0.3-12.6-0.4l0.2,1
		c2.9,1.6,5.9,3.1,8.8,4.5c-0.4,0.5-0.8,1.1-1.1,1.8c-0.4,0.7-0.7,1.3-0.9,1.8l-1,0.2c-2.7-1.6-5.1-3.1-7.3-4.3
		c-2.3-1.3-4.7-2.6-7.2-4l-0.4-1.1c0.4-0.5,0.7-1,1-1.5c0.3-0.6,0.6-1.2,0.9-1.8c1.9,1.4,3.7,2.5,5.5,3.6c-0.5-2.2-1.4-5.5-2.5-9.9
		l2.1-0.7l1.3,6.2C75.4,121.4,79.4,121.5,83.5,121.3"/>
	<path style="clip-path:url(#SVGID_13_);fill:#FFFFFF;" d="M93.7,112.1c-1.2,1.6-2.1,2.7-2.7,3.5l-0.9,1.3c-0.8,1.2-1.6,2.3-2.4,3.5
		l-1.1,0.1c-2.5-1.9-4.7-3.6-6.8-5.1c-2.1-1.5-4.4-3.1-6.8-4.7l-0.3-1.1c1.1-1.4,2-2.6,2.8-3.7c0.9-1.2,1.8-2.5,2.7-3.9l1.2,1.9
		c-0.6,0.8-1.2,1.6-1.9,2.4l-1.1,1.5l5.1,3.9c-0.1-1.6-0.2-3.1-0.4-4.4c1.4,0.1,2.8,0.1,4.4,0c0.2,1.7,0.3,3.1,0.6,4.2
		c-1.5,0-3,0.1-4.4,0.3l6.3,4.4l0.2-0.3c0.1-0.1,0.2-0.2,0.3-0.4c0.1-0.2,0.2-0.3,0.3-0.4c0.8-1.1,1.6-2.2,2.3-3.4L93.7,112.1z"/>
	<path style="clip-path:url(#SVGID_13_);fill:#FFFFFF;" d="M88.6,90.4l1.1,2.1l-2.1,2.3c1.4,1.5,3.1,3.1,5.3,5
		c2.2,2,4.5,3.9,6.9,5.8c-0.4,0.3-0.9,0.9-1.6,1.6c-0.5,0.6-0.9,1-1.1,1.4l-1.1-0.1c-1.4-1.4-3.3-3.1-5.6-5.2l-1.6-1.4
		c-0.6-0.5-2.1-1.7-4.4-3.6l-2.1,2.3l-2.2-0.9c2-2.1,3.5-3.6,4.4-4.7C85.9,93.6,87.3,92,88.6,90.4"/>
	<path style="clip-path:url(#SVGID_13_);fill:#FFFFFF;" d="M113.8,91.1l0.1,1.2c-0.4,0.3-1,0.7-1.6,1.3c-0.5,0.5-0.9,0.9-1.2,1.2
		c-1.3-1.6-3.1-3.7-5.4-6.3l-2.5-2.8l0,0l3.8,12.9c-0.7,0.5-1.6,1.2-2.7,2.2l-1.1-0.1c-2-2.4-3.8-4.5-5.5-6.4
		c-1.7-1.9-3.6-4-5.6-6.1l0-1.2c0.3-0.2,0.8-0.6,1.4-1.1c0.5-0.4,0.9-0.8,1.3-1.3l3.9,4.4c1.3,1.4,2.8,3.2,4.5,5.4l0.1-0.1l-2.5-8.3
		c-0.4-1.2-0.9-3-1.5-5.5c0.7-0.5,1.5-1.2,2.5-2.1l0.9,0.2c1.6,2,3.4,4.1,5.4,6.3C110,87.1,112,89.2,113.8,91.1"/>
	<path style="clip-path:url(#SVGID_13_);fill:#FFFFFF;" d="M120.4,71.8c2.3,3.4,1.4,6.6-2.9,9.7c1.1,1.5,2.5,3.2,4.1,5.1
		c-0.6,0.3-1.2,0.7-1.8,1.1c-0.6,0.4-1.1,0.8-1.6,1.2l-1-0.2c-1.7-2.6-3.2-5-4.7-7.1c-1.5-2.1-3.1-4.4-4.8-6.7l0.1-1.1
		c0.4-0.3,1.1-0.8,2-1.4c0.9-0.6,1.6-1.1,2-1.4c0.7-0.5,1.3-0.9,1.7-1c0.5-0.2,1.1-0.4,1.7-0.5C117.4,69.1,119.1,69.9,120.4,71.8
		 M117.4,74.5c-1.5-2.2-3.4-2.8-5.6-1.7c1.2,1.9,2.8,4.4,5,7.5C118.6,78.6,118.9,76.6,117.4,74.5"/>
	<path style="clip-path:url(#SVGID_13_);fill:#FFFFFF;" d="M133.6,60.6c0.9,6.7,1.8,12.2,2.6,16.3l1,5.1l-2.2-0.3l-0.6-3.8
		c-1.3-1.1-2.3-2-3.2-2.7c-2-1.5-5.1-3.7-9.1-6.7l-0.1-0.7c1-1.5,1.6-2.7,2-3.8c1.1,1,2.5,2.1,4.5,3.4c2.5,1.7,4,2.8,4.6,3.2l0.1,0
		l-1.8-10.5L133.6,60.6z"/>
	<path style="clip-path:url(#SVGID_13_);fill:#FFFFFF;" d="M161.5,57.9c0.6,1.8,0.8,3.5,0.6,5.2c-0.3,1.9-1.1,3.4-2.4,4.7
		c-0.8,0.7-1.7,1.3-2.7,1.7c-1,0.4-2,0.5-3.1,0.4c-1.7-0.2-3.1-1-4.4-2.3c-1.1-1.1-2-2.6-2.6-4.3l-2.2,0.8c1,2.7,1.9,5.3,2.9,7.7
		l-0.4,1c-0.7,0.2-1.3,0.4-1.9,0.6c-0.6,0.2-1.2,0.5-1.8,0.7c-1-3.1-1.9-6-2.8-8.5c-0.9-2.6-1.9-5.3-3-8l0.4-1.1
		c1.4-0.3,2-0.4,1.9-0.4c0.6-0.2,1.2-0.5,1.8-0.8c1,3.3,1.8,5.6,2.3,6.9l2.3-0.8c-0.4-2.2-0.2-4.2,0.6-5.9c0.9-1.9,2.4-3.2,4.5-4
		c2.3-0.8,4.5-0.5,6.4,1C159.4,53.7,160.7,55.5,161.5,57.9 M157.7,60.5c-1.6-4.4-3.9-6.8-7.1-7c-1,1.7-1,3.9,0,6.7
		c1.6,4.4,3.9,6.7,7.1,7C158.6,65.5,158.6,63.2,157.7,60.5"/>
	<path style="clip-path:url(#SVGID_13_);fill:#FFFFFF;" d="M192.6,60.6l-0.3,3c-1-0.5-4.1-0.4-9.3,0.4l-4.9,0.7
		c-0.9,0.1-2.2,0.3-4,0.7c-1.8,0.3-3.2,0.5-4,0.7l-0.8-0.8c-0.3-2.5-0.5-5-0.9-7.3l-0.3-2.5c-0.3-1.9-0.6-4.2-1.1-6.8l0.6-0.9
		c0.6-0.1,1.2-0.2,1.8-0.3c0.6-0.1,1.2-0.2,1.8-0.3c0.1,1,0.3,2.4,0.6,4.3c0.3,1.9,0.5,3.4,0.6,4.3c0.1,0.8,0.3,2.1,0.6,3.7
		c0.3,1.7,0.4,2.9,0.6,3.7l4.5-0.6c-0.2-2.5-0.5-4.6-0.7-6.4c-0.1-0.7-0.3-1.7-0.5-3c-0.2-1.3-0.4-2.3-0.5-3l0.5-0.9l2.7-0.4
		l0.6,0.7c0.1,0.7,0.2,1.7,0.3,3c0.1,1.4,0.2,2.4,0.3,3.1c0.3,2,0.6,4.1,1.1,6.3l4.7-0.6c-0.1-0.8-0.3-2-0.5-3.7
		c-0.2-1.6-0.3-2.8-0.5-3.7c-0.1-1-0.4-2.4-0.7-4.4c-0.3-2-0.5-3.4-0.7-4.4c0.8-0.1,1.4-0.2,1.8-0.3c0.6-0.1,1.2-0.2,1.8-0.3
		l0.8,0.7c0.3,3.1,0.7,5.9,1,8.4c0.3,2.2,0.7,4.5,1.1,6.9L192.6,60.6z"/>
	<path style="clip-path:url(#SVGID_13_);fill:#FFFFFF;" d="M209.9,62.7l-0.8,0.9c-0.5-0.1-1.2-0.1-2-0.2c-0.7,0-1.3,0-1.7,0
		c0.2-2.1,0.3-4.8,0.5-8.3l0.1-3.8l-0.1,0l-6.2,11.9c-0.9-0.2-2-0.3-3.5-0.3l-0.7-0.8c0.2-3.1,0.4-5.9,0.5-8.4
		c0.1-2.6,0.1-5.3,0.1-8.3l0.8-0.8c0.4,0.1,1,0.1,1.8,0.2c0.6,0,1.2,0,1.8,0l-0.2,5.9c-0.1,1.9-0.2,4.2-0.5,7l0.1,0l4-7.7
		c0.5-1.1,1.4-2.8,2.7-5c0.8,0.1,1.9,0.2,3.3,0.2l0.5,0.8c-0.2,2.6-0.3,5.3-0.5,8.3C210,57.2,209.9,60,209.9,62.7"/>
	<path style="clip-path:url(#SVGID_13_);fill:#FFFFFF;" d="M224.6,65.8c-1.9-0.4-3.4-0.7-4.3-0.8l-1.5-0.2c-1.4-0.2-2.8-0.4-4.2-0.5
		l-0.6-0.9c0.6-3.1,1.1-5.9,1.5-8.4c0.4-2.6,0.8-5.3,1.1-8.2l0.9-0.8c1.7,0.3,3.3,0.6,4.6,0.8c1.4,0.2,3,0.4,4.7,0.6l-1.1,1.9
		c-0.9-0.2-2-0.4-3-0.6l-1.8-0.3l-1.1,6.3c1.4-0.8,2.7-1.6,3.7-2.4c0.5,1.3,1.2,2.6,2,4c-1.4,0.9-2.6,1.7-3.5,2.4
		c-0.7-1.4-1.5-2.6-2.2-3.8l-1,7.6l0.4,0.1c0.1,0,0.3,0,0.5,0.1c0.2,0,0.4,0.1,0.5,0.1c1.3,0.2,2.7,0.4,4.1,0.5L224.6,65.8z"/>
	<path style="clip-path:url(#SVGID_13_);fill:#FFFFFF;" d="M249.8,54l-1.4,1.8l-3-0.9c-0.8,1.9-1.6,4.2-2.5,6.9
		c-0.9,2.8-1.7,5.7-2.5,8.6c-0.5-0.2-1.2-0.5-2.2-0.8c-0.7-0.2-1.3-0.4-1.7-0.4l-0.4-1.1c0.7-1.9,1.5-4.3,2.4-7.2l0.6-2
		c0.2-0.8,0.7-2.6,1.5-5.5l-3-1l-0.1-2.3c2.7,1,4.7,1.7,6.1,2.1C245.7,52.9,247.7,53.5,249.8,54"/>
	<path style="clip-path:url(#SVGID_13_);fill:#FFFFFF;" d="M255.9,76.5c-1.8-0.9-3.1-1.5-4-1.9l-1.4-0.6c-1.3-0.6-2.6-1.1-3.9-1.5
		l-0.4-1c1.3-2.8,2.5-5.4,3.5-7.8c1-2.4,2.1-4.9,3.1-7.6l1-0.5c1.6,0.8,3,1.4,4.3,1.9c1.3,0.6,2.8,1.2,4.4,1.8l-1.6,1.6
		c-0.9-0.4-1.8-0.9-2.8-1.3l-1.7-0.7l-2.7,5.8c1.6-0.5,3-0.9,4.2-1.4c0.2,1.4,0.5,2.8,0.9,4.3c-1.6,0.5-2.9,1-4,1.5
		c-0.4-1.5-0.8-2.9-1.2-4.2l-2.9,7.1l0.4,0.2c0.1,0,0.2,0.1,0.4,0.2c0.2,0.1,0.3,0.2,0.4,0.2c1.2,0.5,2.5,1,3.8,1.5L255.9,76.5z"/>
	<path style="clip-path:url(#SVGID_13_);fill:#FFFFFF;" d="M270.4,81.1c-1,0.3-2.6,0.8-4.6,1.4c0.1-2.9,0-5.6-0.2-7.9l-7.5,3.8
		l0.2-2.8l7.2-3.4c-0.1-1.9-0.4-4.6-0.8-8.1l0.5-0.7c1.2-0.2,2.7-0.6,4.3-1.2c-0.1,2.7,0,5.2,0.1,7.5l7.3-3.3l-0.1,2.5l-7,3.3
		c0.3,2.5,0.7,5.2,1.1,8L270.4,81.1z"/>
	<path style="clip-path:url(#SVGID_13_);fill:#FFFFFF;" d="M283.2,93.1l-1,0.2c-0.4-0.4-0.9-0.8-1.4-1.2c-0.5-0.4-1-0.7-1.5-1
		c1.6-2,3.2-4.2,4.8-6.5l-4.5-3.3l-1.1,1.5c-1.2,1.7-2.4,3.4-3.6,5c-0.4-0.4-0.9-0.8-1.4-1.1c-0.5-0.4-1-0.7-1.5-1l-0.1-1.1
		c1.9-2.4,3.7-4.7,5.1-6.8c1.5-2.1,3.1-4.4,4.6-6.8l1.1-0.3c0.4,0.4,0.9,0.8,1.4,1.1c0.4,0.3,0.9,0.6,1.5,1c-1.4,2-2.5,3.5-3.4,4.7
		l-1.4,1.9l4.5,3.3l1.8-2.5c0.9-1.3,1.9-2.6,2.8-4.1c0.6,0.5,1,0.9,1.4,1.1c0.5,0.4,1,0.7,1.6,1l0.1,1.2c-1.6,2-3.2,4.2-4.9,6.6
		C286.3,88.5,284.7,90.9,283.2,93.1"/>
	<path style="clip-path:url(#SVGID_13_);fill:#FFFFFF;" d="M303.5,101c-1.8,1.8-3.7,2.8-5.9,3c-2.7,0.3-5-0.6-7-2.5
		c-1.8-1.8-2.5-3.9-2.2-6.3c0.3-2.2,1.4-4.2,3.1-6c1.9-1.9,3.9-2.9,6.3-3.1c2.5-0.2,4.7,0.6,6.6,2.5c1.8,1.8,2.6,3.9,2.2,6.4
		C306.3,97.2,305.3,99.2,303.5,101 M299.1,98.4c3.3-3.4,4.3-6.6,3-9.6c-2-0.2-4,0.8-6.1,2.8c-3.2,3.3-4.3,6.5-3.1,9.6
		C295.1,101.4,297.1,100.4,299.1,98.4"/>
	<path style="clip-path:url(#SVGID_13_);fill:#FFFFFF;" d="M308.8,118.2c-1.4-0.3-3-0.6-4.9-0.9c2.3-3.4,4.3-7.1,6.2-11.2
		c-4.3,1.2-8.6,2.1-13,2.7l0.6-2.4c3.3-0.5,7.8-1.5,13.5-2.9l1.1-2.6c1.2,0.3,2.8,0.5,4.7,0.8C314.5,107.5,311.8,112.9,308.8,118.2"
		/>
	<path style="clip-path:url(#SVGID_13_);fill:#FFFFFF;" d="M323.8,130.2c-2.1,1.3-4.3,1.8-6.5,1.5c-2.7-0.4-4.8-1.8-6.2-4.1
		c-1.3-2.2-1.5-4.4-0.6-6.7c0.9-2.1,2.4-3.7,4.5-5c2.3-1.4,4.6-1.9,6.9-1.5c2.5,0.4,4.4,1.8,5.8,4.1c1.3,2.2,1.5,4.4,0.6,6.7
		C327.5,127.2,326,128.9,323.8,130.2 M320.2,126.6c4-2.4,5.8-5.3,5.3-8.6c-1.9-0.7-4.1-0.3-6.6,1.2c-4,2.4-5.7,5.2-5.4,8.5
		C315.6,128.5,317.8,128.1,320.2,126.6"/>
	<path style="clip-path:url(#SVGID_13_);fill:#FFFFFF;" d="M338,139.2l-2.4,0.3c-0.3-1-0.7-2-1.1-2.9l-0.7-1.6
		c-2,0.7-4.2,1.6-6.6,2.7c-2.5,1.1-5.2,2.5-8.3,4.3c-0.2-0.7-0.5-1.3-0.8-1.9c-0.3-0.6-0.6-1.2-0.9-1.7l0.4-1
		c3.9-1.6,6.5-2.7,7.9-3.4c1.5-0.7,4-1.9,7.4-3.6l1.2,0.3c0.7,2,1.3,3.4,1.7,4.4C336.3,136,337,137.4,338,139.2"/>
	<path style="clip-path:url(#SVGID_13_);fill:#FFFFFF;" d="M327.4,162.9l-1.1-0.4c-0.1-0.5-0.3-1.2-0.5-1.9
		c-0.2-0.7-0.4-1.2-0.6-1.6c2-0.5,4.6-1.3,8-2.4l3.6-1.1l0-0.1l-13.3-1.8c-0.1-0.9-0.4-2-0.9-3.4l0.6-0.9c3-0.9,5.7-1.7,8.1-2.4
		c2.5-0.8,5.1-1.7,7.8-2.7l1.1,0.4c0.1,0.4,0.2,1,0.5,1.7c0.2,0.6,0.4,1.1,0.6,1.7l-5.6,1.8c-1.8,0.6-4,1.2-6.8,1.9l0,0.1l8.6,1.1
		c1.3,0.1,3.1,0.4,5.6,0.8c0.2,0.8,0.5,1.9,0.9,3.1l-0.6,0.7c-2.5,0.7-5.1,1.5-7.9,2.4C332.6,161.1,329.9,162,327.4,162.9"/>
	<path style="clip-path:url(#SVGID_13_);fill:#FFFFFF;" d="M330.8,181.1l-1-0.6c0-0.5-0.1-1.2-0.3-2c-0.1-0.7-0.3-1.3-0.4-1.6
		c2.1-0.3,4.8-0.7,8.2-1.3l3.7-0.6l0-0.1l-13-3.6c0-0.9-0.2-2-0.4-3.5l0.7-0.9c3.1-0.4,5.9-0.9,8.4-1.3c2.5-0.4,5.3-1,8.1-1.6l1,0.6
		c0,0.4,0.1,1,0.2,1.8c0.1,0.6,0.2,1.2,0.4,1.8l-5.8,1c-1.9,0.3-4.2,0.7-7,1l0,0.1l8.4,2.3c1.2,0.3,3.1,0.8,5.5,1.6
		c0.1,0.8,0.2,1.9,0.4,3.2l-0.6,0.7c-2.5,0.3-5.3,0.8-8.2,1.3C336.2,180,333.4,180.6,330.8,181.1"/>
	<path style="clip-path:url(#SVGID_13_);fill:#FFFFFF;" d="M60.1,239.7c-1.7,0.5-3.3-0.5-4.7-3.2c-0.8-1.5-1.7-4.6-2.5-9.4
		c-0.4-2.2-0.7-4.4-1-6.6c0.2-0.4,0.3-0.8,0.5-1.3c2.7-0.1,5.1-0.3,7.2-0.6c2.2-0.3,4.5-0.7,7-1.2c0.3,0.4,0.6,0.7,0.9,1
		c0.2,1.5,0.4,3,0.6,4.4c0.7,4.1,1.1,6.8,1.2,8.1c0.1,3.2-0.6,5-2.2,5.5c-1.7,0.5-3.3-1-4.7-4.5C62.8,236.6,62.1,239.1,60.1,239.7
		 M65.2,230.6c1.9-0.4,2.5-2.6,1.9-6.7c-2,0.4-4,0.7-6,1.1c0.4,1.9,0.9,3.3,1.6,4.3C63.4,230.4,64.3,230.9,65.2,230.6 M58.5,233.4
		c1.8-0.4,2.3-3.1,1.6-8.3c-2,0.4-4.1,0.7-6.1,1.1C55.1,231.6,56.7,233.9,58.5,233.4"/>
	<path style="clip-path:url(#SVGID_13_);fill:#FFFFFF;" d="M65.8,262.7c-1.4-1.2-3-2.4-4.8-3.6c1.4-3.4,2.7-6.5,4-9.6
		c-0.2-0.6-0.4-1.3-0.6-1.9c-2,0.8-3.9,1.6-5.8,2.7c-0.3-1-0.6-2-1-3.1c-0.3-1-0.6-2-0.8-2.9c0.1-0.4,0.2-0.8,0.4-1.2
		c2.6-0.6,4.9-1.2,7-1.9c2.1-0.6,4.4-1.4,6.7-2.3c0.3,0.3,0.7,0.5,1,0.8c0.2,0.8,0.6,1.9,1,3.5c0.5,1.5,0.9,2.7,1.1,3.4
		c0.4,1.3,0.8,2.3,0.9,3c0.2,0.7,0.3,1.5,0.3,2.5c0.1,2.6-0.6,4.2-2.2,5c-1.8,0.8-3.6,0.2-5.1-2.1C66.9,257.8,66.2,260.4,65.8,262.7
		 M70.5,251.6c2-0.8,2.5-3,1.6-6.5c-2.9,0.8-4.8,1.4-5.9,1.8c-0.3,0.1-0.7,0.2-1,0.3C66.7,251,68.6,252.4,70.5,251.6"/>
	<path style="clip-path:url(#SVGID_13_);fill:#FFFFFF;" d="M68.9,272.9c-0.4-0.2-0.7-0.4-1.1-0.6c-0.4-0.9-0.8-1.7-1.3-2.7
		c-0.4-0.9-0.9-1.8-1.3-2.6c2.6-1.1,4.9-2.2,7-3.3c2.1-1.1,4.3-2.2,6.5-3.5c0.4,0.2,0.8,0.4,1.1,0.6c0.3,0.8,0.7,1.5,1,2.2
		c0.3,0.6,0.7,1.4,1.3,2.3c-2.1,1-4.4,2.2-6.7,3.5C73.1,270.3,70.9,271.6,68.9,272.9"/>
	<path style="clip-path:url(#SVGID_13_);fill:#FFFFFF;" d="M83.1,297.2c-1.9-1-3.8-1.6-5.7-2c0.2-1.9,0.2-4.1,0-6.5
		c-0.6-0.6-1-1.2-1.4-1.8c-1.9-2.8-2.6-5.6-2.1-8.2c0.4-2.2,1.6-3.9,3.4-5c1.9-1.2,4-1.3,6.3-0.6c2.5,0.8,4.6,2.6,6.5,5.4
		c1.8,2.5,2.5,5,2.3,7.5c-0.2,2.2-1.1,4-2.7,5.4c-2,1.7-4.5,2-7.4,0.5C82.2,293.6,82.5,295.4,83.1,297.2 M84.8,287.2
		c3.2-2.5,4.1-5.6,2.9-9.3c-2-1-4-0.8-6.1,0.6c-3.3,2.2-4.5,5.4-3.1,9.3C80.8,288.9,82.9,288.7,84.8,287.2"/>
	<path style="clip-path:url(#SVGID_13_);fill:#FFFFFF;" d="M99.3,311.4c-0.4,0-0.8-0.1-1.2-0.1c-0.6-0.5-1.2-1.1-1.9-1.7
		c-0.6-0.6-1.2-1.1-1.8-1.7c0.3-0.2,0.7-0.6,1.2-1c0.2-0.2,0.3-0.4,0.5-0.5c-3.4-1-5.9-2.5-7.4-4.1c-1.6-1.7-2.1-3.3-1.6-4.7
		c0.3-0.9,1-1.9,2.3-3c0.7-0.6,1.4-1.2,2.2-1.9c1.3-1.1,2.9-2.6,5-4.6c0.4,0.1,0.8,0.1,1.2,0.2c0.5,0.7,1,1.3,1.4,1.8
		c0.2,0.2,0.4,0.5,0.8,0.8c0.4,0.4,0.7,0.6,0.8,0.8c-0.2,0.1-0.7,0.5-1.3,1.1c-0.6,0.5-1.4,1.3-2.5,2.3c-1.1,1-2,1.8-2.5,2.3
		c-0.5,0.4-0.9,0.9-1.3,1.4c-1.2,1.4-1.1,3,0.5,4.6c0.9,0.9,2,1.6,3.4,2c0.3-0.3,0.7-0.8,1.3-1.3c0.6-0.6,1-1,1.3-1.4
		c1.2-1.2,2.3-2.4,3.5-3.6c0.6-0.6,1.4-1.5,2.3-2.6c0.6,0.7,1.1,1.2,1.6,1.6c0.5,0.5,1.1,1,1.7,1.4c0.1,0.4,0.1,0.8,0.2,1.2
		c-1.6,1.6-3.2,3.3-4.9,5.2C102.2,307.7,100.7,309.5,99.3,311.4"/>
	<path style="clip-path:url(#SVGID_13_);fill:#FFFFFF;" d="M111.8,322c-2.2-1.6-3.7-2.8-4.8-3.6c-0.6-0.4-1.1-0.9-1.7-1.3
		c-1.5-1.2-3-2.3-4.5-3.5c-0.1-0.4-0.2-0.8-0.3-1.1c1.9-1.9,3.5-3.8,5-5.4c1.5-1.7,3-3.5,4.5-5.5c0.4,0,0.8,0,1.2,0
		c1.6,1.4,3.1,2.6,4.3,3.6c1.4,1.1,2.9,2.2,4.7,3.3c-0.6,0.3-1.3,0.6-1.9,0.9c-0.9-0.7-1.9-1.5-3-2.3c-0.6-0.4-1.2-0.9-1.7-1.3
		c-1.2,1.4-2.4,2.8-3.6,4.2c1.8,0.3,3.5,0.5,4.9,0.5c0.1,1.3,0.4,2.8,0.8,4.4c-1.9-0.2-3.5-0.3-4.8-0.3c-0.3-1.6-0.7-3-1-4.5
		c-1.3,1.8-2.7,3.5-4,5.3c0.1,0.1,0.3,0.2,0.4,0.3c0.1,0.1,0.3,0.2,0.5,0.4c0.2,0.2,0.4,0.3,0.5,0.4c1.4,1.1,2.9,2.1,4.5,3.1
		C111.8,320.5,111.8,321.2,111.8,322"/>
	<path style="clip-path:url(#SVGID_13_);fill:#FFFFFF;" d="M135.7,317.7c-0.6,0.4-1.2,0.8-1.8,1.2c-1.1-0.6-2.2-1.2-3.4-1.8
		c-1.2,1.7-2.5,3.7-3.9,6.1c-1.4,2.4-2.4,4.3-3.2,5.9c-0.8-0.4-1.5-0.9-2.3-1.3c-0.8-0.4-1.5-0.9-2.3-1.3c-0.2-0.4-0.3-0.7-0.5-1.1
		c1-1.4,2.2-3.1,3.5-5.1c1.3-2,2.5-4.1,3.6-6.1c-1.1-0.7-2.2-1.3-3.2-2c0.1-0.7,0.1-1.4,0.2-2.1c2.4,1.7,4.6,3.1,6.5,4.2
		C130.4,315.1,132.6,316.3,135.7,317.7"/>
	<path style="clip-path:url(#SVGID_13_);fill:#FFFFFF;" d="M149.3,323.7c-0.5,0.5-1.1,0.9-1.6,1.4c-1.2-0.4-2.4-0.9-3.5-1.4
		c-1,1.8-2.1,4-3.2,6.5c-1.1,2.5-1.9,4.6-2.5,6.2c-0.8-0.3-1.6-0.7-2.4-1c-0.8-0.4-1.6-0.7-2.4-1.1c-0.2-0.3-0.4-0.7-0.6-1
		c0.9-1.5,1.8-3.3,2.9-5.5c1-2.2,2-4.3,2.8-6.5c-1.1-0.5-2.3-1.1-3.4-1.6c0-0.7,0-1.4,0-2.1c2.6,1.4,4.9,2.5,6.9,3.4
		C143.8,321.6,146.1,322.6,149.3,323.7"/>
	<path style="clip-path:url(#SVGID_13_);fill:#FFFFFF;" d="M160.2,343.4c-2.6-0.7-4.4-1.3-5.7-1.6c-0.7-0.2-1.3-0.4-2-0.6
		c-1.8-0.5-3.6-1.1-5.4-1.6c-0.2-0.3-0.5-0.6-0.7-0.9c1.1-2.5,2-4.7,2.7-6.8c0.8-2.1,1.5-4.3,2.3-6.7c0.4-0.1,0.7-0.3,1.1-0.4
		c2,0.7,3.7,1.3,5.3,1.8c1.7,0.5,3.5,1,5.5,1.4c-0.5,0.5-1,1-1.4,1.5c-1.1-0.3-2.3-0.7-3.6-1c-0.7-0.2-1.4-0.4-2.1-0.6
		c-0.6,1.7-1.3,3.5-1.9,5.2c1.8-0.4,3.4-0.8,4.7-1.3c0.6,1.2,1.3,2.5,2.3,3.8c-1.8,0.5-3.3,1-4.5,1.4c-0.8-1.3-1.7-2.6-2.5-3.8
		c-0.6,2.1-1.2,4.2-1.9,6.4c0.2,0.1,0.3,0.1,0.5,0.2c0.1,0,0.3,0.1,0.6,0.2c0.3,0.1,0.5,0.1,0.6,0.2c1.7,0.5,3.5,0.9,5.3,1.3
		C159.7,342,160,342.7,160.2,343.4"/>
	<path style="clip-path:url(#SVGID_13_);fill:#FFFFFF;" d="M184.5,339.2c-0.4,5.3-5.4,7.8-14.6,6.2c-1.6-0.3-3.2-0.6-4.7-0.9
		c-0.3-0.3-0.5-0.6-0.8-0.9c0.7-2.6,1.3-4.9,1.8-7c0.5-2.2,1-4.5,1.4-6.9c0.4-0.2,0.7-0.4,1.1-0.6c1.5,0.3,3,0.6,4.4,0.8
		c3.6,0.6,6.1,1.2,7.5,2C183.5,333.6,184.8,336,184.5,339.2 M178.6,338.5c0.5-4.1-1.4-6.4-5.9-7.3c-0.5,2.1-0.9,4.3-1.3,6.4
		c-0.4,2.1-0.8,4.3-1.1,6.5C175.2,344.7,178,342.7,178.6,338.5"/>
	<path style="clip-path:url(#SVGID_13_);fill:#FFFFFF;" d="M210.9,331.5c-0.3,0.6-0.5,1.3-0.8,1.9c-1.3,0.1-2.5,0.2-3.8,0.3
		c-0.1,2.1,0,4.5,0.2,7.2c0.2,2.7,0.4,4.9,0.6,6.6c-0.9,0.1-1.7,0.1-2.6,0.1c-0.9,0-1.8,0.1-2.6,0.1c-0.3-0.2-0.7-0.4-1-0.6
		c0.1-1.7,0.1-3.7,0.1-6.1c-0.1-2.4-0.2-4.7-0.4-7c-1.3,0-2.5,0-3.8,0c-0.3-0.6-0.6-1.2-1-1.9c3,0.1,5.5,0.1,7.7,0
		C205,332.1,207.5,331.9,210.9,331.5"/>
	<path style="clip-path:url(#SVGID_13_);fill:#FFFFFF;" d="M229.8,344.6c-2.6,0.5-4.6,0.8-5.8,1c-0.7,0.1-1.4,0.2-2.1,0.3
		c-1.9,0.3-3.7,0.6-5.5,0.9c-0.3-0.2-0.7-0.4-1-0.6c-0.2-2.7-0.4-5.1-0.7-7.2c-0.3-2.2-0.6-4.5-1.1-7c0.3-0.3,0.5-0.6,0.8-0.9
		c2.1-0.2,3.9-0.4,5.5-0.7c1.7-0.3,3.6-0.6,5.6-1.1c-0.2,0.7-0.4,1.3-0.6,2c-1.2,0.2-2.4,0.4-3.7,0.6c-0.7,0.1-1.4,0.2-2.1,0.3
		c0.2,1.8,0.5,3.6,0.7,5.5c1.4-1.1,2.6-2.2,3.6-3.1c1.1,0.8,2.3,1.6,3.8,2.4c-1.4,1.2-2.5,2.3-3.4,3.2c-1.4-0.8-2.7-1.6-4-2.3
		c0.4,2.2,0.8,4.3,1.3,6.5c0.2,0,0.4-0.1,0.5-0.1c0.1,0,0.3-0.1,0.6-0.1c0.3,0,0.5-0.1,0.6-0.1c1.8-0.3,3.5-0.7,5.3-1.1
		C228.7,343.5,229.2,344,229.8,344.6"/>
	<path style="clip-path:url(#SVGID_13_);fill:#FFFFFF;" d="M246.7,336.7c-0.7,1.3-1.4,2.7-2.1,4c-0.5,0.2-1.2,0.5-2.1,0.8
		c-3.3,1-6.1,0.9-8.4-0.2c-2-1-3.2-2.6-3.8-4.7c-0.5-2.2-0.1-4.2,1.1-6.1c1.4-2.1,3.5-3.5,6.5-4.4c0.9-0.3,1.8-0.5,2.5-0.6
		c0.6,0.5,1.3,0.9,1.9,1.4c-1.3,0.3-2.2,0.5-2.7,0.6c-2,0.6-3.3,1.5-4.1,2.8c-0.6,1.1-0.7,2.3-0.3,3.8c0.5,1.7,1.5,2.8,3,3.5
		c1.7,0.7,3.8,0.7,6.3-0.1C245.1,337.3,245.7,337.1,246.7,336.7"/>
	<path style="clip-path:url(#SVGID_13_);fill:#FFFFFF;" d="M267.3,330.7c-0.2,0.3-0.4,0.7-0.5,1c-0.7,0.3-1.5,0.6-2.3,1
		c-0.7,0.4-1.4,0.7-2.2,1.1c-0.9-2-1.9-4.1-2.9-6.3c-2.2,1-4.3,1.9-6.6,2.8c0.2,0.5,0.4,1,0.6,1.5c0.7,1.7,1.4,3.3,2.1,4.9
		c-0.7,0.2-1.5,0.5-2.3,0.8c-0.8,0.3-1.5,0.6-2.2,0.9c-0.4-0.1-0.8-0.2-1.1-0.3c-0.8-2.6-1.6-4.9-2.3-6.9c-0.8-2.1-1.7-4.2-2.8-6.5
		c0.2-0.3,0.4-0.7,0.6-1c0.7-0.2,1.4-0.4,2-0.7c0.5-0.2,1.2-0.5,2-0.9c0.8,1.9,1.5,3.4,2,4.6c0.3,0.6,0.5,1.2,0.8,1.8
		c2.2-0.9,4.3-1.8,6.5-2.8c-0.4-0.8-0.8-1.6-1.2-2.4c-0.6-1.2-1.3-2.5-2-3.8c0.8-0.3,1.5-0.6,2-0.9c0.7-0.3,1.3-0.7,1.9-1
		c0.4,0.1,0.8,0.2,1.1,0.3c0.9,2,2,4.1,3.2,6.3C264.8,326.6,266,328.7,267.3,330.7"/>
	<path style="clip-path:url(#SVGID_13_);fill:#FFFFFF;" d="M288.1,315.4c-0.5,1.5-1,3.2-1.4,4.9c-3.5-0.4-8.8-1.1-15.6-2.6
		c1.7,2.7,3.4,5.3,5,8c-0.6,0.8-1.3,1.7-2,2.5c-2.3-3.7-4.5-7.5-6.8-11.2c-0.5-0.1-1-0.2-1.4-0.4c0.8-1.5,1.5-2.9,2.2-4.4
		c5.1,1.5,9.9,2.3,14.3,2.7c-1.8-2.4-3.6-4.8-5.4-7.3c0.5-0.8,0.9-1.6,1.4-2.4c2.6,3.4,5.3,6.8,7.9,10.1
		C286.9,315.4,287.5,315.4,288.1,315.4"/>
	<path style="clip-path:url(#SVGID_13_);fill:#FFFFFF;" d="M301.4,295.7c1.6,1.5,2.3,3.4,2.1,5.8c-0.3,3-1.9,5.8-4.6,8.4
		c-2.5,2.3-5.2,3.4-7.8,3.4c-2.4-0.1-4.2-1-5.6-2.7c-1.4-1.8-1.9-3.9-1.4-6.2c0.5-2.5,1.9-4.8,4.3-7.1c2.3-2.1,4.6-3.3,7.1-3.4
		C297.8,293.6,299.7,294.2,301.4,295.7 M297.6,301.1c-2.9-2.9-6.1-3.3-9.6-1.6c-0.7,2.1-0.2,4.1,1.4,6c2.6,3,5.9,3.7,9.6,1.8
		C299.9,304.9,299.4,302.9,297.6,301.1"/>
	<path style="clip-path:url(#SVGID_13_);fill:#FFFFFF;" d="M315.7,287.4c0.3,0.7,0.6,1.5,0.8,2.2c-1.3,1.7-2.7,3.5-4.1,5.3
		c-1.1,1.4-2.3,2.8-3.4,4.2c-0.4,0.1-0.8,0.2-1.1,0.3c-1.9-1.9-3.7-3.6-5.4-5c-1.7-1.5-3.5-3-5.5-4.6c0-0.4,0-0.8,0-1.2
		c0.5-0.5,1-1,1.5-1.7c0.5-0.6,1-1.2,1.4-1.9c1.7,1.5,3.5,3.1,5.4,4.7c1.9,1.6,3.8,3,5.5,4.3c0.2-0.3,0.4-0.5,0.6-0.8
		C313.1,291.3,314.5,289.4,315.7,287.4"/>
	<path style="clip-path:url(#SVGID_13_);fill:#FFFFFF;" d="M322.8,263.4c1.9,1,3.1,2.7,3.5,5.2c0.5,3.1-0.3,6.5-2.3,9.9
		c-1.8,3.2-4.1,5.1-6.7,5.8c-2.3,0.6-4.3,0.3-6.1-1c-1.9-1.3-2.8-3.3-3-5.8c-0.2-2.7,0.6-5.4,2.4-8.4c1.6-2.9,3.6-4.8,6-5.8
		C318.8,262.4,320.8,262.4,322.8,263.4 M320.6,270c-3.5-2-6.7-1.4-9.7,1.5c-0.1,2.3,0.8,4.2,2.9,5.6c3.3,2.2,6.6,1.9,9.8-1.2
		C323.8,273.2,322.8,271.2,320.6,270"/>
	<path style="clip-path:url(#SVGID_13_);fill:#FFFFFF;" d="M332.5,241.3c1.2,2.8,2.6,5.5,4.3,8.3c0,0.1,0,0.1-0.1,0.2s0,0.2-0.1,0.3
		c0,0.1,0,0.2-0.1,0.3c-0.2,0.6-0.4,1.3-0.7,2.1c-1.4,4.1-3.3,6.7-5.6,8c-2,1.2-4.1,1.2-6.2,0.2c-2.1-1-3.4-2.7-4-5
		c-0.7-2.6-0.4-5.5,0.8-9c0.4-1.3,0.9-2.3,1.3-3.1c0.7-0.2,1.3-0.5,2-0.7c0,0.1,0.1,0.2,0.1,0.3c-0.5,0.9-0.9,2-1.3,3.2
		c-0.7,2.2-0.9,4-0.3,5.4c0.5,1.2,1.3,2.1,2.7,2.6c1.6,0.7,3.1,0.6,4.5-0.2c1.7-0.9,3-2.8,4-5.6c0.1-0.3,0.2-0.7,0.3-1.3
		c-1.7,0.8-3.1,1.6-4.3,2.3c-0.4-1.6-0.9-3.3-1.6-5.1C329.9,243.5,331.3,242.4,332.5,241.3"/>
	<path style="clip-path:url(#SVGID_13_);fill:#FFFFFF;" d="M329.2,217.5c1.9,2.6,3.8,5.3,5.6,8c0.4,0.1,0.9,0.2,1.3,0.2
		c1.9,0.3,3.9,0.4,6.2,0.1c-0.2,1.3-0.4,2.5-0.7,3.7c-0.2,1.3-0.5,2.5-0.7,3.6c-0.2,0.2-0.4,0.5-0.6,0.7c-1.4-0.7-3.4-1.3-6-1.9
		c-2.5,1.8-5,3.7-7.7,5.6c-0.2-0.2-0.4-0.3-0.6-0.5c-0.3-1.8-0.8-3.5-1.4-5.3c2.5-1.2,5.1-2.8,7.9-4.9c-1.8-2.6-3.7-5.1-5.6-7.6
		C327.7,218.8,328.4,218.1,329.2,217.5"/>
</g>
</svg>
