<?xml version="1.0" encoding="UTF-8" standalone="no"?>
<svg id="svg2" xmlns:rdf="http://www.w3.org/1999/02/22-rdf-syntax-ns#" xmlns="http://www.w3.org/2000/svg" xml:space="preserve" height="90" width="90" version="1.1" xmlns:cc="http://creativecommons.org/ns#" viewBox="0 0 90.000023 90" xmlns:dc="http://purl.org/dc/elements/1.1/"><metadata id="metadata8"><rdf:RDF><cc:Work rdf:about=""><dc:format>image/svg+xml</dc:format><dc:type rdf:resource="http://purl.org/dc/dcmitype/StillImage"/><dc:title/></cc:Work></rdf:RDF></metadata><defs id="defs6"><clipPath id="clipPath16" clipPathUnits="userSpaceOnUse"><path id="path18" d="m0 394.46h394.46v-394.46h-394.46v394.46z"/></clipPath><linearGradient id="linearGradient40" gradientUnits="userSpaceOnUse" gradientTransform="matrix(3.2233 -244.92 -244.92 -3.2233 173.24 304.06)"><stop id="stop42" stop-color="#a3c847" offset="0"/><stop id="stop44" stop-color="#a3c847" offset=".0056180"/><stop id="stop46" stop-color="#59903c" offset="1"/></linearGradient><linearGradient id="linearGradient62" gradientUnits="userSpaceOnUse" gradientTransform="matrix(3.2235 -244.93 -244.93 -3.2235 222.41 304.71)"><stop id="stop64" stop-color="#a3c847" offset="0"/><stop id="stop66" stop-color="#a3c847" offset=".0056180"/><stop id="stop68" stop-color="#59903c" offset="1"/></linearGradient><linearGradient id="linearGradient84" gradientUnits="userSpaceOnUse" gradientTransform="matrix(3.2235 -244.94 -244.94 -3.2235 132.21 303.53)"><stop id="stop86" stop-color="#a3c847" offset="0"/><stop id="stop88" stop-color="#a3c847" offset=".0056180"/><stop id="stop90" stop-color="#59903c" offset="1"/></linearGradient><clipPath id="clipPath98" clipPathUnits="userSpaceOnUse"><path id="path100" d="m0 394.46h394.46v-394.46h-394.46v394.46z"/></clipPath></defs><g id="g10" transform="matrix(1.25 0 0 -1.25 -0.000375 90)"><g id="g4400" transform="matrix(.18253 0 0 .18253 .00024524 0)"><g id="g12"><g id="g14" clip-path="url(#clipPath16)"><g id="g20" transform="translate(283.4 111.06)"><path id="path22" d="m0 0c-11.311-11.291-24.838-20.328-39.549-26.412-14.717-6.108-30.592-9.24-46.623-9.283-16.031 0.043-31.908 3.175-46.623 9.283-14.713 6.084-28.238 15.121-39.549 26.412-11.291 11.309-20.328 24.834-26.414 39.549-6.107 14.717-9.238 30.595-9.281 46.623 0.043 16.028 3.174 31.908 9.281 46.623 6.086 14.716 15.123 28.242 26.414 39.55 11.311 11.29 24.836 20.327 39.549 26.413 14.715 6.107 30.592 9.239 46.623 9.282 16.031-0.043 31.906-3.175 46.623-9.282 14.716-6.09 28.243-15.12 39.554-26.42 11.291-11.3 20.328-24.83 26.412-39.54 6.108-14.72 9.24-30.6 9.283-46.628-0.043-16.028-3.175-31.906-9.283-46.623-6.084-14.715-15.121-28.24-26.412-39.549m89.631 86.172-0.643 13.213c7.473 3.075 14.987 6.468 22.073 10.165-1.307 10.276-3.157 20.454-6.071 30.423-8.08 0.682-15.996 1.07-24.191 1.027l-4.565 12.455c-1.693 4.077-3.742 8.005-5.629 12 5.694 5.699 11.35 11.759 16.471 17.888-5.137 8.997-10.805 17.635-17.262 25.725-7.664-2.43-15.236-5.212-22.757-8.371l-8.922 9.786-9.783 8.917c3.162 7.523 5.943 15.097 8.373 22.758-8.09 6.458-16.729 12.127-25.725 17.262-6.135-5.118-12.191-10.78-17.889-16.469-3.996 1.886-7.924 3.931-12 5.629l-12.457 4.568c0.045 8.191-0.343 16.108-1.029 24.187-9.969 2.913-20.146 4.767-30.418 6.069-3.697-7.084-7.096-14.599-10.166-22.071l-13.213 0.643-13.213-0.643c-3.074 7.472-6.472 14.987-10.166 22.071-10.275-1.302-20.453-3.156-30.422-6.069-0.681-8.079-1.07-15.998-1.031-24.19l-12.449-4.565c-4.078-1.698-8.01-3.743-12.002-5.629-5.701 5.689-11.754 11.351-17.887 16.469-8.998-5.135-17.637-10.804-25.724-17.262 2.429-7.661 5.211-15.235 8.369-22.758l-9.783-8.917-8.924-9.786c-7.518 3.159-15.094 5.941-22.754 8.367-6.457-8.086-12.127-16.724-17.262-25.721 5.121-6.133 10.777-12.189 16.469-17.888-1.885-3.995-3.934-7.923-5.629-12l-4.56-12.46c-8.193 0.043-16.111-0.345-24.189-1.027-2.914-9.973-4.768-20.15-6.07-30.423 7.084-3.697 14.599-7.09 22.072-10.165l-0.643-13.213 0.643-13.213c-7.473-3.074-14.988-6.469-22.072-10.166 1.306-10.275 3.156-20.453 6.07-30.42 8.078-0.684 15.996-1.072 24.189-1.027l4.565-12.457c1.695-4.076 3.744-8.004 5.629-12-5.692-5.698-11.348-11.758-16.469-17.889 5.135-8.996 10.805-17.635 17.262-25.725 7.664 2.43 15.236 5.211 22.758 8.373l8.92-9.787 9.783-8.918c-3.158-7.521-5.94-15.097-8.369-22.757 8.087-6.457 16.726-12.126 25.724-17.262 6.133 5.117 12.19 10.781 17.887 16.471 3.994-1.887 7.924-3.934 12.002-5.629l12.46-4.569c-0.043-8.191 0.346-16.107 1.031-24.187 9.969-2.914 20.147-4.768 30.418-6.071 3.697 7.086 7.096 14.6 10.166 22.073l13.213-0.643 13.213 0.643c3.074-7.473 6.473-14.987 10.166-22.073 10.275 1.303 20.453 3.157 30.42 6.071 0.684 8.08 1.072 15.998 1.033 24.191l12.451 4.565c4.076 1.695 8.008 3.742 12 5.629 5.702-5.69 11.754-11.35 17.889-16.471 8.996 5.136 17.635 10.805 25.725 17.262-2.43 7.66-5.211 15.236-8.373 22.757l9.783 8.918 8.926 9.787c7.517-3.162 15.093-5.943 22.753-8.369 6.457 8.086 12.125 16.725 17.262 25.721-5.121 6.135-10.777 12.191-16.471 17.889 1.887 3.996 3.936 7.924 5.629 12l4.565 12.457c8.195-0.045 16.111 0.343 24.191 1.027 2.914 9.971 4.768 20.146 6.071 30.42-7.086 3.697-14.6 7.092-22.073 10.166l0.643 13.213z" fill="#675449"/></g><g id="g24" transform="translate(269.57 124.9)"><path id="path26" d="m0 0c-9.514-9.49-20.877-17.078-33.209-22.174-12.336-5.115-25.607-7.74-39.125-7.791-13.517 0.051-26.789 2.676-39.125 7.791-12.332 5.096-23.695 12.684-33.209 22.174-9.488 9.512-17.076 20.875-22.172 33.207-5.115 12.336-7.744 25.606-7.789 39.125 0.045 13.52 2.674 26.79 7.789 39.125 5.096 12.332 12.684 23.696 22.172 33.207 9.514 9.49 20.877 17.079 33.209 22.174 12.336 5.115 25.608 7.741 39.125 7.79 13.518-0.049 26.789-2.675 39.125-7.79 12.333-5.1 23.696-12.69 33.21-22.18 9.488-9.51 17.076-20.87 22.172-33.2 5.115-12.338 7.744-25.608 7.791-39.128-0.047-13.519-2.676-26.789-7.791-39.125-5.096-12.332-12.684-23.695-22.172-33.207m34.676 116.64c-5.783 13.981-14.369 26.842-25.104 37.597-10.759 10.734-23.613 19.326-37.597 25.104-13.979 5.801-29.053 8.78-44.309 8.822-15.256-0.042-30.328-3.021-44.308-8.822-13.985-5.778-26.84-14.37-37.598-25.104-10.733-10.755-19.322-23.616-25.104-37.597-5.8-13.979-8.779-29.052-8.82-44.309 0.041-15.256 3.02-30.33 8.82-44.309 5.782-13.98 14.371-26.841 25.104-37.597 10.758-10.735 23.613-19.324 37.598-25.104 13.98-5.802 29.052-8.777 44.308-8.82 15.256 0.043 30.33 3.018 44.309 8.82 13.984 5.78 26.838 14.369 37.597 25.104 10.735 10.756 19.321 23.617 25.104 37.597 5.803 13.979 8.777 29.053 8.82 44.309-0.043 15.257-3.017 30.33-8.82 44.309" fill="#a58c7d"/></g></g></g><g id="g28"><g id="g30"><g id="g36"><g id="g38"><path id="path48" fill="url(#linearGradient40)" d="m173.45 102.35 14.679 4.191s-27.256 16.773-8.388 60.798c0 0-32.496-30.396-6.291-64.989"/></g></g></g></g><g id="g50"><g id="g52"><g id="g58"><g id="g60"><path id="path70" fill="url(#linearGradient62)" d="m181.36 183.07 49.771 37.419-41.169-47.601c77.396-51.59 84.547 90.889 84.547 90.889-145.7-18.646-93.149-80.707-93.149-80.707"/></g></g></g></g><g id="g72"><g id="g74"><g id="g80"><g id="g82"><path id="path92" fill="url(#linearGradient84)" d="m97.275 210.27c29.002-92.075 63.029-50.87 63.029-50.87l-29.988 27.844 35.577-21.091c17.09 39.311-23.537 45.182-49.333 45.182-10.988 0-19.285-1.065-19.285-1.065"/></g></g></g></g><g id="g94"><g id="g96" clip-path="url(#clipPath98)"><g id="g102" transform="translate(60.246 220.77)"><path id="path104" d="m0 0c-3.1 0.446-5.065-0.769-5.902-3.643l2.975-0.428c1.468-0.211 4.034-0.485 7.696-0.82-0.018 2.806-1.607 4.436-4.769 4.891m1.183 4.48c1.322-0.19 2.482-0.631 3.478-1.323 0.998-0.692 1.624-1.615 1.879-2.769 0.307-1.394 0.265-3.445-0.124-6.151l-0.531-3.688-1.179-0.716c-3.615 0.667-7.283 1.268-11.002 1.804-3.099 0.446-5.94 0.781-8.523 1.005l-0.929 1.019c0.4 1.756 0.73 3.533 0.988 5.331 0.319 2.21 0.531 4.194 0.635 5.95l2.443-1.268c-0.42-1.901-0.686-3.234-0.797-3.998l-0.289-2.015 5.223-1.068c0.859 5.971 3.769 8.6 8.728 7.887" fill="#fff"/></g><g id="g106" transform="translate(57.185 238.73)"><path id="path108" d="m0 0c-2.581 0.69-4.361-0.109-5.341-2.396 2.111-0.673 5.002-1.499 8.672-2.48 0.32 2.571-0.79 4.197-3.331 4.876m0.612 3.985c3.973-1.062 5.333-4.137 4.079-9.226 1.827-0.445 3.965-0.855 6.413-1.228-0.226-0.61-0.434-1.266-0.624-1.972-0.178-0.665-0.32-1.319-0.426-1.96l-0.942-0.494c-2.977 0.904-5.698 1.685-8.158 2.343-2.499 0.668-5.175 1.329-8.025 1.984l-0.653 0.952c0.14 0.524 0.343 1.323 0.608 2.398 0.28 1.048 0.494 1.845 0.638 2.39 0.233 0.867 0.433 1.493 0.601 1.881 0.242 0.497 0.565 0.983 0.974 1.458 1.418 1.587 3.257 2.078 5.515 1.474" fill="#fff"/></g><g id="g110" transform="translate(75.912 255.84)"><path id="path112" d="m0 0 0.567-1.011c-0.263-0.478-0.544-1.085-0.844-1.819-0.278-0.677-0.457-1.2-0.541-1.571-1.874 0.878-4.413 1.973-7.622 3.284l-3.478 1.422-0.023-0.058 9.076-9.901c-0.44-0.746-0.94-1.804-1.5-3.175l-1.027-0.359c-2.839 1.274-5.428 2.389-7.765 3.344-2.396 0.98-4.966 1.974-7.711 2.984l-0.527 1.027c0.209 0.343 0.461 0.882 0.762 1.617 0.229 0.559 0.429 1.131 0.601 1.716l5.477-2.239c1.739-0.712 3.886-1.668 6.438-2.869l0.048 0.116-5.876 6.393c-0.893 0.906-2.153 2.323-3.778 4.25 0.393 0.742 0.844 1.731 1.349 2.967l0.897 0.209c2.337-1.068 4.868-2.16 7.592-3.273 2.724-1.114 5.352-2.132 7.885-3.054" fill="#fff"/></g><g id="g114" transform="translate(83.533 273.18)"><path id="path116" d="m0 0c0.168-1.132 0.532-2.677 1.093-4.636-4.122 0.201-8.312 0.344-12.572 0.432l0.155-0.991c2.928-1.606 5.871-3.103 8.829-4.493-0.388-0.549-0.768-1.148-1.142-1.8-0.384-0.67-0.686-1.255-0.901-1.757l-1.023-0.208c-2.656 1.621-5.078 3.062-7.268 4.32-2.262 1.299-4.673 2.634-7.23 4.008l-0.417 1.099c0.363 0.462 0.699 0.962 1.007 1.502 0.341 0.593 0.636 1.189 0.884 1.788 1.894-1.353 3.737-2.545 5.53-3.574-0.519 2.2-1.352 5.483-2.504 9.851l2.146 0.718 1.267-6.216c4-0.204 8.048-0.218 12.146-0.043" fill="#fff"/></g><g id="g118" transform="translate(93.732 282.4)"><path id="path120" d="m0 0c-1.228-1.56-2.123-2.728-2.686-3.507l-0.917-1.269c-0.83-1.151-1.615-2.31-2.353-3.475l-1.058-0.125c-2.465 1.908-4.731 3.608-6.8 5.102-2.102 1.517-4.362 3.084-6.779 4.7l-0.302 1.139c1.083 1.392 2.02 2.636 2.81 3.729 0.85 1.177 1.753 2.483 2.71 3.916l1.212-1.906c-0.62-0.75-1.243-1.561-1.871-2.431l-1.051-1.457 5.111-3.883c-0.099 1.643-0.245 3.099-0.435 4.37 1.363-0.11 2.838-0.117 4.422-0.026 0.152-1.68 0.342-3.092 0.572-4.236-1.536-0.024-2.987-0.109-4.355-0.255l6.338-4.382 0.238 0.331c0.061 0.084 0.156 0.215 0.284 0.394 0.129 0.177 0.223 0.308 0.284 0.393 0.794 1.1 1.552 2.239 2.273 3.417l2.353-0.539z" fill="#fff"/></g><g id="g122" transform="translate(88.616 304.09)"><path id="path124" d="m0 0 1.095-2.066-2.084-2.338c1.384-1.458 3.144-3.138 5.279-5.041 2.213-1.972 4.496-3.897 6.851-5.772-0.395-0.319-0.941-0.867-1.635-1.646-0.514-0.577-0.878-1.049-1.095-1.416l-1.115 0.114c-1.426 1.411-3.276 3.13-5.552 5.159l-1.565 1.396c-0.592 0.527-2.051 1.729-4.376 3.607l-2.084-2.337-2.178 0.851c1.995 2.08 3.464 3.65 4.408 4.71 1.348 1.511 2.698 3.104 4.051 4.779" fill="#fff"/></g><g id="g126" transform="translate(113.83 303.37)"><path id="path128" d="m0 0 0.066-1.157c-0.446-0.315-0.965-0.736-1.557-1.264-0.545-0.487-0.938-0.878-1.176-1.175-1.298 1.612-3.1 3.711-5.406 6.297l-2.501 2.804-0.046-0.042 3.809-12.88c-0.722-0.476-1.636-1.208-2.742-2.194l-1.08 0.129c-1.991 2.389-3.828 4.528-5.51 6.413-1.721 1.931-3.595 3.953-5.619 6.065l-0.022 1.154c0.338 0.218 0.802 0.59 1.394 1.119 0.452 0.402 0.883 0.828 1.294 1.278l3.939-4.417c1.25-1.402 2.759-3.203 4.525-5.403l0.093 0.083-2.473 8.325c-0.404 1.205-0.914 3.031-1.528 5.476 0.679 0.493 1.518 1.184 2.514 2.074l0.898-0.207c1.63-1.985 3.425-4.076 5.385-6.273 1.959-2.197 3.873-4.266 5.743-6.205" fill="#fff"/></g><g id="g130" transform="translate(117.36 319.99)"><path id="path132" d="m0 0c-1.512 2.202-3.384 2.754-5.615 1.653 1.166-1.884 2.824-4.392 4.974-7.524 1.915 1.746 2.129 3.702 0.641 5.871m3.056 2.629c2.328-3.39 1.36-6.611-2.9-9.662 1.097-1.525 2.454-3.227 4.073-5.104-0.57-0.314-1.155-0.678-1.757-1.092-0.569-0.39-1.102-0.794-1.6-1.211l-1.037 0.237c-1.673 2.624-3.23 4.986-4.673 7.086-1.464 2.133-3.066 4.375-4.805 6.726l0.123 1.148c0.448 0.308 1.121 0.783 2.022 1.426 0.894 0.614 1.574 1.081 2.039 1.4 0.739 0.508 1.3 0.854 1.68 1.039 0.506 0.22 1.068 0.379 1.687 0.474 2.11 0.283 3.826-0.539 5.148-2.467" fill="#fff"/></g><g id="g134" transform="translate(133.6 333.83)"><path id="path136" d="m0 0c0.918-6.747 1.781-12.188 2.586-16.323l0.97-5.088-2.221 0.308-0.602 3.795c-1.251 1.107-2.309 2.01-3.177 2.706-2.028 1.498-5.064 3.738-9.108 6.716l-0.088 0.699c0.954 1.452 1.617 2.716 1.992 3.79 1.06-0.972 2.546-2.121 4.457-3.445 2.462-1.692 3.993-2.769 4.592-3.23l0.083 0.044-1.836 10.515 2.352-0.487z" fill="#fff"/></g><g id="g138" transform="translate(157.65 333.92)"><path id="path140" d="m0 0c-1.572 4.426-3.948 6.75-7.127 6.972-0.983-1.723-0.993-3.941-0.03-6.656 1.558-4.386 3.918-6.727 7.079-7.022 1.009 1.776 1.035 4.011 0.078 6.706m3.851 2.63c0.635-1.79 0.825-3.539 0.567-5.248-0.295-1.854-1.1-3.425-2.414-4.711-0.797-0.748-1.708-1.304-2.731-1.667-1.003-0.357-2.025-0.476-3.063-0.357-1.668 0.206-3.142 0.956-4.421 2.251-1.137 1.146-2.008 2.566-2.608 4.258l-2.212-0.786c0.97-2.734 1.933-5.294 2.892-7.679l-0.377-0.997c-0.651-0.165-1.3-0.362-1.95-0.593-0.63-0.223-1.228-0.469-1.797-0.738-0.999 3.123-1.949 5.954-2.849 8.491-0.923 2.597-1.929 5.274-3.019 8.033l0.394 1.137c1.354 0.303 1.982 0.438 1.883 0.402 0.551 0.196 1.165 0.469 1.836 0.819 1.047-3.262 1.806-5.551 2.273-6.869l2.302 0.817c-0.445 2.19-0.249 4.165 0.588 5.924 0.901 1.893 2.414 3.216 4.538 3.97 2.321 0.825 4.454 0.496 6.396-0.984 1.669-1.268 2.926-3.093 3.772-5.473" fill="#fff"/></g><g id="g142" transform="translate(192.56 333.89)"><path id="path144" d="m0 0-0.306-3.015c-1.038 0.488-4.14 0.37-9.308-0.351l-4.932-0.689c-0.889-0.124-2.238-0.344-4.05-0.659-1.81-0.316-3.16-0.537-4.049-0.661l-0.833 0.769c-0.25 2.536-0.535 4.962-0.859 7.278l-0.347 2.481c-0.262 1.881-0.631 4.158-1.11 6.831l0.565 0.934c0.62 0.085 1.229 0.171 1.83 0.254 0.62 0.087 1.219 0.171 1.798 0.251 0.132-0.951 0.333-2.387 0.602-4.31s0.469-3.36 0.602-4.311c0.118-0.847 0.302-2.096 0.554-3.748 0.251-1.651 0.436-2.9 0.554-3.747l4.467 0.623c-0.222 2.498-0.457 4.626-0.702 6.384-0.095 0.681-0.267 1.69-0.518 3.025-0.249 1.335-0.42 2.333-0.513 2.995l0.512 0.862 2.698 0.377 0.605-0.706c0.093-0.662 0.201-1.669 0.327-3.021 0.126-1.353 0.236-2.37 0.331-3.053 0.273-1.963 0.633-4.074 1.074-6.33l4.652 0.649c-0.117 0.827-0.271 2.049-0.465 3.666-0.195 1.617-0.349 2.838-0.464 3.666-0.136 0.971-0.356 2.436-0.662 4.397-0.305 1.959-0.525 3.424-0.66 4.396 0.846 0.119 1.446 0.202 1.797 0.252 0.58 0.08 1.189 0.166 1.831 0.255l0.83-0.738c0.325-3.094 0.666-5.903 1.017-8.425 0.306-2.192 0.679-4.479 1.116-6.863l2.016 0.282z" fill="#fff"/></g><g id="g146" transform="translate(209.92 331.75)"><path id="path148" d="m0 0-0.751-0.882c-0.54 0.082-1.207 0.137-1.999 0.165-0.731 0.027-1.285 0.015-1.662-0.034 0.178 2.062 0.328 4.823 0.452 8.287l0.134 3.754-0.063 0.002-6.159-11.935c-0.851 0.155-2.017 0.259-3.499 0.312l-0.69 0.84c0.216 3.103 0.368 5.918 0.459 8.442 0.092 2.586 0.137 5.342 0.137 8.267l0.783 0.849c0.393-0.077 0.987-0.13 1.78-0.158 0.604-0.021 1.211-0.011 1.818 0.03l-0.211-5.914c-0.066-1.878-0.224-4.222-0.469-7.033l0.125-0.005 3.971 7.723c0.543 1.15 1.438 2.82 2.686 5.011 0.831-0.114 1.915-0.194 3.25-0.242l0.505-0.769c-0.196-2.563-0.346-5.315-0.451-8.256s-0.154-5.76-0.146-8.454" fill="#fff"/></g><g id="g150" transform="translate(224.63 328.66)"><path id="path152" d="m0 0c-1.947 0.388-3.395 0.656-4.343 0.804l-1.547 0.242c-1.403 0.219-2.791 0.393-4.165 0.523l-0.59 0.886c0.583 3.062 1.072 5.854 1.465 8.374 0.4 2.562 0.772 5.287 1.117 8.174l0.878 0.784c1.733-0.334 3.265-0.605 4.599-0.813 1.434-0.224 3.007-0.438 4.718-0.641l-1.15-1.944c-0.949 0.211-1.954 0.4-3.015 0.565l-1.775 0.277-1.144-6.317c1.419 0.835 2.651 1.625 3.697 2.37 0.52-1.265 1.182-2.583 1.982-3.955-1.429-0.896-2.602-1.705-3.517-2.429-0.718 1.359-1.451 2.614-2.2 3.766l-1.034-7.634 0.402-0.063c0.102-0.016 0.264-0.041 0.48-0.075 0.215-0.034 0.376-0.059 0.48-0.075 1.339-0.209 2.698-0.369 4.076-0.478l0.586-2.341z" fill="#fff"/></g><g id="g154" transform="translate(249.77 340.46)"><path id="path156" d="m0 0-1.439-1.842-2.985 0.95c-0.766-1.859-1.583-4.151-2.452-6.876-0.898-2.824-1.725-5.694-2.477-8.61-0.452 0.232-1.176 0.507-2.17 0.824-0.737 0.234-1.316 0.374-1.739 0.422l-0.35 1.064c0.707 1.878 1.522 4.269 2.447 7.173l0.636 1.999c0.242 0.755 0.745 2.578 1.51 5.466l-2.983 0.951-0.111 2.335c2.714-0.974 4.746-1.675 6.099-2.106 1.929-0.614 3.935-1.198 6.014-1.75" fill="#fff"/></g><g id="g158" transform="translate(255.88 317.93)"><path id="path160" d="m0 0c-1.791 0.856-3.127 1.474-4.009 1.852l-1.439 0.616c-1.306 0.559-2.608 1.07-3.907 1.536l-0.353 1.004c1.321 2.823 2.484 5.407 3.488 7.753 1.021 2.384 2.055 4.931 3.102 7.645l1.045 0.541c1.596-0.751 3.014-1.392 4.255-1.923 1.335-0.571 2.805-1.167 4.414-1.787l-1.594-1.6c-0.868 0.441-1.797 0.871-2.782 1.293l-1.653 0.707-2.669-5.839c1.581 0.458 2.97 0.92 4.168 1.383 0.193-1.354 0.507-2.794 0.944-4.32-1.606-0.517-2.942-1.012-4.008-1.486-0.36 1.493-0.761 2.891-1.202 4.192l-2.888-7.142 0.375-0.16c0.095-0.041 0.244-0.105 0.446-0.191s0.35-0.15 0.447-0.191c1.246-0.534 2.524-1.024 3.832-1.47l-0.012-2.413z" fill="#fff"/></g><g id="g162" transform="translate(270.38 313.33)"><path id="path164" d="m0 0c-1.033-0.304-2.578-0.775-4.636-1.412 0.066 2.931 0.016 5.569-0.152 7.914l-7.514-3.789 0.162 2.782 7.214 3.383c-0.096 1.873-0.37 4.564-0.818 8.072l0.496 0.691c1.233 0.193 2.659 0.577 4.275 1.154-0.073-2.688-0.03-5.19 0.13-7.506l7.296 3.336-0.146-2.499-6.969-3.329c0.3-2.535 0.679-5.186 1.137-7.952l-0.475-0.845z" fill="#fff"/></g><g id="g166" transform="translate(283.22 301.34)"><path id="path168" d="m0 0-1.042-0.213c-0.438 0.393-0.919 0.779-1.443 1.157-0.492 0.355-1.001 0.684-1.528 0.987 1.553 2.046 3.156 4.21 4.805 6.495l-4.545 3.281-1.118-1.549-3.609-5.001c-0.439 0.393-0.911 0.772-1.418 1.138-0.509 0.367-1.018 0.696-1.528 0.987l-0.127 1.057c1.94 2.436 3.654 4.686 5.146 6.751 1.513 2.099 3.06 4.368 4.641 6.806l1.142 0.296c0.435-0.392 0.9-0.767 1.392-1.12 0.387-0.281 0.897-0.61 1.527-0.988-1.41-1.954-2.546-3.525-3.403-4.714l-1.362-1.887 4.543-3.279 1.841 2.548c0.92 1.274 1.869 2.644 2.849 4.107 0.572-0.49 1.045-0.87 1.418-1.139 0.49-0.354 1.008-0.689 1.553-1.005l0.051-1.157c-1.575-2.004-3.224-4.2-4.945-6.586-1.723-2.387-3.337-4.711-4.84-6.972" fill="#fff"/></g><g id="g170" transform="translate(299.12 296.06)"><path id="path172" d="m0 0c3.282 3.359 4.272 6.567 2.967 9.622-2.01 0.183-4.029-0.763-6.057-2.838-3.239-3.314-4.264-6.5-3.077-9.556 2.112-0.198 4.168 0.727 6.167 2.772m4.37-2.606c-1.751-1.792-3.718-2.803-5.899-3.035-2.713-0.268-5.047 0.554-7.003 2.465-1.807 1.765-2.54 3.868-2.198 6.307 0.313 2.203 1.353 4.208 3.118 6.015 1.853 1.895 3.945 2.945 6.274 3.149 2.477 0.206 4.679-0.632 6.605-2.514 1.837-1.795 2.585-3.911 2.244-6.35-0.3-2.189-1.347-4.201-3.141-6.037" fill="#fff"/></g><g id="g174" transform="translate(308.84 276.24)"><path id="path176" d="m0 0c-1.402 0.347-3.049 0.632-4.94 0.855 2.258 3.39 4.312 7.136 6.161 11.239-4.258-1.165-8.582-2.077-12.976-2.737l0.643 2.402c3.308 0.511 7.795 1.472 13.459 2.884l1.087 2.597c1.204-0.266 2.754-0.548 4.652-0.845-2.416-5.63-5.112-11.094-8.086-16.395" fill="#fff"/></g><g id="g178" transform="translate(320.22 267.86)"><path id="path180" d="m0 0c4.014 2.439 5.769 5.299 5.264 8.583-1.902 0.678-4.092 0.262-6.573-1.243-3.959-2.406-5.745-5.236-5.355-8.492 1.998-0.717 4.22-0.332 6.664 1.152m3.585-3.609c-2.142-1.302-4.297-1.793-6.468-1.475-2.695 0.415-4.752 1.791-6.171 4.127-1.311 2.16-1.5 4.378-0.562 6.657 0.85 2.055 2.356 3.739 4.514 5.05 2.266 1.376 4.553 1.874 6.861 1.493 2.451-0.417 4.376-1.775 5.772-4.076 1.334-2.195 1.532-4.431 0.596-6.71-0.834-2.045-2.348-3.734-4.542-5.066" fill="#fff"/></g><g id="g182" transform="translate(338 255.31)"><path id="path184" d="m0 0-2.392-0.264c-0.317 1.049-0.673 2.01-1.072 2.884l-0.726 1.595c-1.989-0.721-4.189-1.632-6.601-2.73-2.451-1.116-5.23-2.543-8.339-4.279-0.228 0.652-0.49 1.302-0.784 1.948-0.277 0.608-0.574 1.184-0.891 1.727l0.446 0.995c3.854 1.594 6.486 2.712 7.897 3.355 1.486 0.677 3.962 1.886 7.429 3.623l1.153-0.334c0.704-1.95 1.274-3.4 1.706-4.35 0.485-1.064 1.209-2.453 2.174-4.17" fill="#fff"/></g><g id="g186" transform="translate(327.37 231.55)"><path id="path188" d="m0 0-1.084 0.409c-0.106 0.536-0.28 1.182-0.522 1.937-0.223 0.695-0.422 1.213-0.596 1.551 2.001 0.531 4.649 1.326 7.95 2.383l3.578 1.147-0.019 0.059-13.319 1.75c-0.141 0.854-0.438 1.986-0.89 3.397l0.556 0.934c2.992 0.85 5.693 1.66 8.098 2.431 2.465 0.789 5.073 1.68 7.824 2.671l1.065-0.448c0.061-0.397 0.212-0.973 0.455-1.729 0.184-0.576 0.399-1.143 0.643-1.701l-5.636-1.805c-1.789-0.573-4.047-1.219-6.775-1.941l0.037-0.119 8.612-1.12c1.267-0.121 3.141-0.397 5.625-0.829 0.176-0.82 0.467-1.867 0.874-3.139l-0.553-0.736c-2.477-0.684-5.116-1.476-7.919-2.373-2.804-0.898-5.472-1.808-8.004-2.729" fill="#fff"/></g><g id="g190" transform="translate(330.75 213.34)"><path id="path192" d="m0 0-1.017 0.553c-0.033 0.547-0.117 1.21-0.253 1.99-0.125 0.721-0.251 1.26-0.376 1.619 2.052 0.253 4.786 0.677 8.199 1.274l3.701 0.645-0.01 0.062-12.953 3.555c-0.024 0.865-0.163 2.027-0.418 3.487l0.678 0.85c3.082 0.432 5.866 0.865 8.355 1.299 2.55 0.445 5.255 0.971 8.117 1.576l0.992-0.59c0.007-0.401 0.078-0.992 0.215-1.774 0.103-0.596 0.238-1.187 0.404-1.773l-5.829-1.017c-1.852-0.323-4.178-0.655-6.978-0.996l0.021-0.123 8.378-2.289c1.237-0.292 3.055-0.822 5.458-1.589 0.061-0.837 0.207-1.913 0.437-3.23l-0.649-0.654c-2.547-0.338-5.27-0.761-8.17-1.267s-5.667-1.042-8.302-1.608" fill="#fff"/></g><g id="g194" transform="translate(58.502 161.04)"><path id="path196" d="m0 0c1.838 0.447 2.262 3.134 1.602 8.282-2.05-0.362-4.1-0.723-6.15-1.086 1.107-5.326 2.735-7.624 4.548-7.196m6.727 2.785c1.926 0.447 2.475 2.638 1.87 6.732-2.014-0.356-4.03-0.711-6.044-1.067 0.385-1.87 0.93-3.304 1.603-4.317 0.769-1.124 1.631-1.56 2.571-1.348m-5.121-9.06c-1.717-0.487-3.309 0.539-4.687 3.22-0.785 1.51-1.713 4.573-2.539 9.354-0.376 2.185-0.714 4.401-1.012 6.645 0.17 0.419 0.341 0.836 0.513 1.253 2.668 0.122 5.083 0.331 7.245 0.609 2.197 0.282 4.514 0.682 6.955 1.185 0.305-0.35 0.612-0.698 0.92-1.042 0.197-1.483 0.414-2.951 0.65-4.405 0.671-4.108 1.121-6.753 1.153-8.098 0.064-3.211-0.628-5.017-2.219-5.458-1.668-0.456-3.273 0.981-4.659 4.524 0.382-4.65-0.296-7.201-2.32-7.787" fill="#fff"/></g><g id="g198" transform="translate(70.534 142.86)"><path id="path200" d="m0 0c2.004 0.812 2.473 2.955 1.598 6.55-2.86-0.821-4.818-1.405-5.867-1.773-0.33-0.116-0.66-0.231-0.99-0.346 1.467-3.818 3.288-5.225 5.259-4.431m-4.774-11.061c-1.439 1.23-3.037 2.43-4.798 3.619 1.375 3.357 2.704 6.543 3.967 9.579-0.218 0.645-0.433 1.295-0.643 1.947-1.979-0.754-3.904-1.645-5.767-2.691-0.321 0.983-0.65 2.019-0.981 3.11-0.303 0.996-0.584 1.955-0.843 2.87 0.115 0.414 0.232 0.826 0.351 1.239 2.598 0.608 4.934 1.23 7.008 1.855 2.125 0.641 4.367 1.399 6.728 2.262 0.344-0.27 0.688-0.537 1.033-0.8 0.218-0.767 0.553-1.928 1.031-3.461 0.479-1.532 0.857-2.656 1.108-3.394 0.438-1.284 0.755-2.274 0.931-2.99 0.175-0.715 0.268-1.531 0.28-2.455 0.1-2.583-0.607-4.237-2.228-4.972-1.843-0.833-3.572-0.19-5.115 2.054-0.909-2.869-1.581-5.472-2.062-7.772" fill="#fff"/></g><g id="g202" transform="translate(68.895 121.59)"><path id="path204" d="m0 0c-0.359 0.197-0.719 0.396-1.078 0.598-0.386 0.862-0.806 1.745-1.253 2.65s-0.889 1.766-1.33 2.577c2.561 1.143 4.885 2.242 6.975 3.291 2.105 1.056 4.275 2.211 6.511 3.453 0.381-0.196 0.76-0.389 1.141-0.58 0.319-0.793 0.657-1.542 1.013-2.249 0.306-0.608 0.732-1.386 1.287-2.316-2.126-1.033-4.371-2.204-6.735-3.522-2.362-1.316-4.542-2.613-6.531-3.902" fill="#fff"/></g><g id="g206" transform="translate(84.838 107.27)"><path id="path208" d="m0 0c3.223 2.487 4.105 5.563 2.906 9.309-1.97 0.951-3.995 0.784-6.081-0.61-3.341-2.219-4.452-5.354-3.068-9.32 2.2-1.131 4.284-0.882 6.243 0.621m-1.713-10.034c-1.901 0.963-3.808 1.631-5.744 1.987 0.207 1.924 0.197 4.077 0.005 6.466-0.554 0.623-1.023 1.219-1.41 1.783-1.918 2.8-2.603 5.609-2.086 8.243 0.441 2.241 1.599 3.89 3.401 4.98 1.928 1.168 4.015 1.315 6.258 0.569 2.453-0.844 4.559-2.631 6.465-5.356 1.771-2.529 2.54-4.958 2.287-7.459-0.218-2.193-1.103-3.988-2.736-5.359-2.028-1.703-4.513-1.951-7.441-0.529 0.088-1.738 0.419-3.521 1.001-5.325" fill="#fff"/></g><g id="g210" transform="translate(99.265 83.077)"><path id="path212" d="m0 0c-0.396 0.048-0.793 0.097-1.19 0.148-0.599 0.534-1.225 1.1-1.877 1.704-0.612 0.566-1.218 1.136-1.82 1.715 0.337 0.226 0.733 0.574 1.183 1.042 0.169 0.176 0.339 0.352 0.508 0.528-3.43 1.034-5.921 2.451-7.413 4.063-1.552 1.679-2.071 3.287-1.584 4.738 0.265 0.88 1.045 1.873 2.329 2.983 0.717 0.621 1.434 1.241 2.151 1.862 1.284 1.11 2.939 2.635 4.974 4.563 0.401-0.067 0.802-0.131 1.201-0.194 0.487-0.673 0.965-1.267 1.43-1.786 0.173-0.191 0.445-0.467 0.819-0.823 0.375-0.355 0.651-0.623 0.827-0.812-0.239-0.117-0.687-0.485-1.347-1.103-0.555-0.52-1.391-1.283-2.505-2.29-1.115-1.009-1.95-1.771-2.505-2.29-0.463-0.434-0.897-0.896-1.303-1.389-1.21-1.433-1.06-2.975 0.493-4.554 0.894-0.906 2.025-1.576 3.374-1.991 0.289 0.299 0.722 0.75 1.299 1.349 0.578 0.6 1.01 1.049 1.299 1.35 1.168 1.211 2.336 2.424 3.504 3.637 0.576 0.599 1.351 1.462 2.327 2.583 0.616-0.692 1.136-1.226 1.551-1.61 0.545-0.505 1.119-0.977 1.721-1.416 0.054-0.399 0.11-0.798 0.167-1.196-1.592-1.56-3.239-3.285-4.935-5.185-1.695-1.9-3.258-3.772-4.678-5.626" fill="#fff"/></g><g id="g214" transform="translate(111.77 72.471)"><path id="path216" d="m0 0c-2.162 1.57-3.736 2.78-4.772 3.557-0.564 0.423-1.124 0.85-1.682 1.283-1.518 1.176-3.011 2.339-4.489 3.491-0.102 0.382-0.202 0.764-0.3 1.146 1.874 1.943 3.53 3.752 4.975 5.419 1.469 1.696 2.975 3.537 4.528 5.517 0.403 0.001 0.805 0.003 1.207 0.008 1.598-1.419 3.056-2.611 4.348-3.603 1.392-1.067 2.949-2.181 4.681-3.32-0.627-0.3-1.258-0.596-1.891-0.889-0.935 0.73-1.927 1.485-2.975 2.275-0.584 0.44-1.164 0.887-1.741 1.338-1.206-1.406-2.414-2.81-3.625-4.212 1.842-0.297 3.458-0.461 4.85-0.519 0.105-1.332 0.362-2.797 0.789-4.389-1.889 0.15-3.474 0.257-4.752 0.283-0.314 1.558-0.653 3.043-1.022 4.457-1.336-1.774-2.67-3.55-4.002-5.327 0.143-0.112 0.286-0.223 0.429-0.333 0.111-0.086 0.282-0.219 0.514-0.398 0.232-0.177 0.403-0.308 0.515-0.392 1.442-1.097 2.943-2.137 4.498-3.113-0.033-0.758-0.061-1.518-0.083-2.279" fill="#fff"/></g><g id="g218" transform="translate(135.66 76.717)"><path id="path220" d="m0 0c-0.58-0.402-1.163-0.803-1.75-1.198-1.127 0.577-2.246 1.171-3.356 1.782-1.21-1.697-2.512-3.734-3.893-6.119-1.372-2.369-2.432-4.333-3.173-5.899-0.76 0.418-1.528 0.851-2.304 1.297-0.777 0.448-1.537 0.895-2.281 1.342-0.157 0.357-0.312 0.714-0.465 1.071 1.036 1.373 2.198 3.081 3.489 5.123 1.281 2.025 2.465 4.069 3.56 6.124-1.083 0.662-2.158 1.34-3.222 2.035 0.071 0.696 0.147 1.389 0.228 2.083 2.446-1.71 4.636-3.08 6.519-4.171 1.366-0.788 3.561-1.994 6.648-3.47" fill="#fff"/></g><g id="g222" transform="translate(149.31 70.797)"><path id="path224" d="m0 0c-0.53-0.465-1.064-0.926-1.602-1.386-1.182 0.447-2.358 0.908-3.527 1.387-1.01-1.818-2.072-3.984-3.174-6.503-1.093-2.503-1.925-4.568-2.484-6.203-0.799 0.328-1.61 0.668-2.43 1.022s-1.624 0.709-2.412 1.066c-0.195 0.335-0.389 0.671-0.58 1.006 0.873 1.478 1.833 3.302 2.884 5.471 1.043 2.152 1.987 4.311 2.842 6.47-1.148 0.529-2.289 1.076-3.423 1.639-0.007 0.696-0.009 1.391-0.007 2.086 2.617-1.405 4.941-2.508 6.931-3.371 1.442-0.624 3.754-1.569 6.982-2.684" fill="#fff"/></g><g id="g226" transform="translate(160.21 51.031)"><path id="path228" d="m0 0c-2.557 0.697-4.439 1.257-5.671 1.605-0.67 0.191-1.339 0.386-2.006 0.586-1.817 0.543-3.605 1.078-5.372 1.603-0.227 0.314-0.452 0.629-0.676 0.944 1.06 2.467 1.965 4.731 2.724 6.787 0.772 2.091 1.526 4.33 2.276 6.715 0.373 0.147 0.745 0.295 1.115 0.445 1.971-0.728 3.737-1.304 5.28-1.758 1.662-0.489 3.496-0.968 5.502-1.412-0.478-0.5-0.96-0.997-1.446-1.492-1.122 0.346-2.306 0.693-3.553 1.05-0.695 0.199-1.389 0.404-2.081 0.614-0.628-1.73-1.259-3.458-1.893-5.187 1.811 0.386 3.366 0.81 4.678 1.251 0.562-1.195 1.312-2.461 2.266-3.788-1.807-0.526-3.316-0.99-4.51-1.42-0.835 1.329-1.666 2.581-2.5 3.754-0.621-2.116-1.24-4.233-1.855-6.352 0.171-0.051 0.342-0.102 0.514-0.154 0.132-0.039 0.337-0.101 0.614-0.183 0.278-0.081 0.481-0.14 0.614-0.179 1.72-0.499 3.476-0.929 5.26-1.285 0.234-0.715 0.474-1.429 0.72-2.144" fill="#fff"/></g><g id="g230" transform="translate(178.56 55.957)"><path id="path232" d="m0 0c0.545 4.125-1.437 6.449-5.884 7.294-0.48-2.113-0.93-4.25-1.344-6.411-0.407-2.126-0.781-4.294-1.119-6.506 4.998-0.613 7.787 1.382 8.347 5.623m5.928-0.689c-0.44-5.332-5.354-7.823-14.568-6.245-1.579 0.279-3.153 0.582-4.723 0.911-0.264 0.283-0.527 0.567-0.788 0.852 0.737 2.569 1.346 4.921 1.837 7.048 0.498 2.163 0.962 4.471 1.402 6.922 0.365 0.186 0.728 0.375 1.089 0.565 1.475-0.307 2.954-0.59 4.438-0.849 3.579-0.622 6.076-1.245 7.491-2.046 2.795-1.606 4.117-3.949 3.822-7.158" fill="#fff"/></g><g id="g234" transform="translate(210.92 62.92)"><path id="path236" d="m0 0c-0.259-0.645-0.523-1.287-0.792-1.93-1.259-0.11-2.519-0.204-3.781-0.281-0.065-2.062-0.017-4.459 0.158-7.188 0.174-2.711 0.382-4.917 0.635-6.622-0.864-0.051-1.742-0.098-2.633-0.137-0.894-0.039-1.771-0.071-2.635-0.094-0.327 0.215-0.653 0.43-0.977 0.647 0.098 1.7 0.116 3.747 0.057 6.14-0.058 2.375-0.208 4.715-0.437 7.015-1.264-0.027-2.528-0.036-3.792-0.029-0.324 0.618-0.644 1.237-0.96 1.857 2.965-0.107 5.537-0.083 7.704 0.007 1.569 0.067 4.06 0.224 7.453 0.615" fill="#fff"/></g><g id="g238" transform="translate(229.77 49.89)"><path id="path240" d="m0 0c-2.61-0.47-4.553-0.774-5.815-0.987-0.688-0.117-1.375-0.229-2.064-0.335-1.874-0.292-3.718-0.579-5.537-0.869-0.348 0.185-0.693 0.37-1.038 0.556-0.187 2.664-0.42 5.079-0.688 7.248-0.273 2.204-0.628 4.532-1.055 6.989 0.265 0.292 0.529 0.584 0.791 0.877 2.095 0.196 3.938 0.437 5.527 0.69 1.712 0.273 3.572 0.63 5.573 1.09-0.197-0.653-0.4-1.304-0.607-1.955-1.163-0.17-2.383-0.366-3.663-0.58-0.713-0.12-1.428-0.233-2.143-0.341 0.235-1.82 0.465-3.638 0.695-5.457 1.44 1.121 2.637 2.166 3.608 3.123 1.053-0.83 2.307-1.644 3.771-2.425-1.375-1.244-2.511-2.306-3.381-3.202-1.36 0.835-2.679 1.598-3.964 2.292 0.418-2.161 0.84-4.322 1.263-6.484 0.177 0.028 0.354 0.054 0.531 0.081 0.137 0.022 0.348 0.055 0.634 0.1 0.286 0.046 0.495 0.08 0.631 0.103 1.768 0.289 3.538 0.655 5.299 1.099 0.539-0.54 1.083-1.078 1.632-1.613" fill="#fff"/></g><g id="g242" transform="translate(246.7 57.809)"><path id="path244" d="m0 0c-0.686-1.35-1.399-2.696-2.138-4.038-0.536-0.243-1.232-0.497-2.087-0.752-3.29-0.981-6.131-0.89-8.392 0.183-2.013 0.969-3.245 2.554-3.761 4.694-0.528 2.193-0.126 4.211 1.112 6.078 1.373 2.068 3.526 3.489 6.525 4.393 0.927 0.28 1.762 0.486 2.508 0.613 0.635-0.464 1.275-0.925 1.92-1.381-1.343-0.295-2.231-0.497-2.666-0.633-1.998-0.621-3.347-1.531-4.068-2.788-0.613-1.078-0.729-2.329-0.323-3.761 0.468-1.653 1.472-2.829 3.05-3.487 1.676-0.723 3.813-0.706 6.336 0.108 0.336 0.11 1 0.362 1.984 0.771" fill="#fff"/></g><g id="g246" transform="translate(267.27 63.772)"><path id="path248" d="m0 0c-0.179-0.344-0.359-0.687-0.541-1.031-0.724-0.302-1.475-0.644-2.254-1.02-0.73-0.351-1.449-0.719-2.161-1.107-0.893 2.023-1.874 4.126-2.94 6.306-2.161-0.999-4.346-1.942-6.553-2.83 0.215-0.504 0.429-1.007 0.645-1.511 0.713-1.67 1.408-3.295 2.085-4.882-0.746-0.24-1.508-0.513-2.288-0.812-0.78-0.3-1.529-0.606-2.242-0.925-0.383 0.1-0.764 0.201-1.145 0.302-0.77 2.564-1.554 4.867-2.338 6.911-0.797 2.078-1.731 4.249-2.784 6.523 0.191 0.344 0.378 0.689 0.564 1.034 0.675 0.188 1.35 0.412 2.025 0.671 0.534 0.204 1.198 0.491 1.985 0.866 0.815-1.907 1.47-3.441 1.965-4.602 0.263-0.614 0.525-1.227 0.787-1.84 2.177 0.875 4.333 1.806 6.466 2.792-0.396 0.811-0.792 1.622-1.188 2.433-0.594 1.216-1.26 2.489-1.992 3.822 0.839 0.326 1.505 0.614 1.999 0.852 0.651 0.314 1.301 0.663 1.942 1.047 0.379-0.102 0.759-0.202 1.139-0.3 0.928-1.992 1.985-4.108 3.183-6.345 1.199-2.237 2.409-4.358 3.641-6.354" fill="#fff"/></g><g id="g250" transform="translate(288.09 79.037)"><path id="path252" d="m0 0c-0.516-1.543-0.995-3.169-1.444-4.882-3.535 0.402-8.837 1.071-15.564 2.584 1.675-2.661 3.351-5.322 5.027-7.983-0.646-0.832-1.302-1.66-1.969-2.482-2.253 3.743-4.506 7.486-6.759 11.229-0.476 0.121-0.95 0.244-1.423 0.37 0.811 1.472 1.547 2.94 2.213 4.402 5.107-1.487 9.929-2.347 14.33-2.701-1.806 2.421-3.61 4.843-5.416 7.265 0.468 0.809 0.926 1.622 1.372 2.438 2.625-3.383 5.251-6.765 7.876-10.148 0.584-0.035 1.17-0.066 1.757-0.092" fill="#fff"/></g><g id="g254" transform="translate(297.65 93.359)"><path id="path256" d="m0 0c-2.889 2.873-6.066 3.293-9.586 1.571-0.677-2.1-0.235-4.092 1.421-5.982 2.631-3.011 5.85-3.711 9.61-1.779 0.822 2.376 0.304 4.445-1.445 6.19m3.719 5.395c1.6-1.459 2.328-3.375 2.088-5.761-0.32-2.964-1.861-5.82-4.61-8.356-2.541-2.341-5.191-3.447-7.796-3.362-2.353 0.084-4.195 1.023-5.561 2.727-1.435 1.79-1.865 3.872-1.403 6.237 0.505 2.521 1.95 4.814 4.341 7.055 2.278 2.136 4.596 3.292 7.1 3.443 2.244 0.142 4.198-0.485 5.841-1.983" fill="#fff"/></g><g id="g258" transform="translate(315.73 107.09)"><path id="path260" d="m0 0c0.286-0.732 0.568-1.469 0.847-2.209-1.288-1.685-2.665-3.455-4.143-5.295-1.149-1.433-2.274-2.818-3.374-4.165-0.379-0.091-0.757-0.18-1.135-0.266-1.918 1.901-3.705 3.581-5.354 5.047-1.677 1.49-3.501 3.018-5.464 4.595 0.011 0.408 0.018 0.815 0.024 1.223 0.483 0.471 0.991 1.024 1.524 1.661 0.482 0.576 0.966 1.206 1.445 1.89 1.679-1.544 3.485-3.114 5.425-4.707 1.926-1.581 3.768-3.006 5.535-4.266 0.217 0.269 0.433 0.54 0.648 0.811 1.413 1.787 2.757 3.683 4.022 5.681" fill="#fff"/></g><g id="g262" transform="translate(320.62 124.43)"><path id="path264" d="m0 0c-3.547 1.978-6.731 1.374-9.689-1.469-0.108-2.325 0.84-4.182 2.937-5.56 3.333-2.196 6.634-1.899 9.769 1.242 0.173 2.657-0.868 4.585-3.017 5.787m2.187 6.681c1.93-0.959 3.136-2.673 3.528-5.174 0.467-3.112-0.278-6.5-2.277-9.922-1.848-3.159-4.127-5.089-6.672-5.808-2.302-0.64-4.331-0.265-6.097 1.014-1.857 1.347-2.817 3.289-2.984 5.796-0.169 2.677 0.63 5.423 2.361 8.438 1.646 2.875 3.588 4.795 5.971 5.764 2.133 0.874 4.188 0.878 6.17-0.108" fill="#fff"/></g><g id="g266" transform="translate(332.45 153.18)"><path id="path268" d="m0 0c1.17-2.766 2.59-5.532 4.268-8.325-0.021-0.063-0.04-0.124-0.061-0.187-0.02-0.062-0.05-0.155-0.091-0.278-0.022-0.13-0.045-0.226-0.064-0.286-0.169-0.632-0.389-1.344-0.662-2.139-1.404-4.064-3.325-6.723-5.561-8.027-2.011-1.171-4.092-1.193-6.234-0.179-2.066 0.98-3.378 2.65-4.023 4.975-0.688 2.598-0.399 5.521 0.789 8.975 0.43 1.254 0.864 2.298 1.315 3.131 0.674 0.231 1.347 0.468 2.021 0.713 0.038-0.09 0.076-0.181 0.114-0.271-0.458-0.942-0.886-2.026-1.296-3.249-0.736-2.194-0.853-3.976-0.306-5.429 0.451-1.193 1.336-2.078 2.677-2.641 1.554-0.653 3.062-0.602 4.516 0.21 1.693 0.946 3.046 2.826 3.958 5.648 0.108 0.333 0.222 0.749 0.341 1.25-1.654-0.788-3.085-1.557-4.297-2.329-0.365 1.65-0.889 3.339-1.58 5.056 1.642 1.128 3.033 2.268 4.176 3.382" fill="#fff"/></g><g id="g270" transform="translate(329.18 176.94)"><path id="path272" d="m0 0c1.942-2.586 3.825-5.254 5.642-8 0.439-0.079 0.879-0.157 1.319-0.236 1.864-0.335 3.921-0.399 6.17-0.15-0.21-1.276-0.43-2.525-0.659-3.747-0.236-1.258-0.474-2.453-0.712-3.59-0.187-0.237-0.374-0.474-0.562-0.71-1.375 0.668-3.372 1.291-5.988 1.887-2.501-1.804-5.049-3.666-7.651-5.552-0.205 0.169-0.411 0.338-0.617 0.506-0.285 1.75-0.767 3.523-1.449 5.305 2.499 1.162 5.132 2.766 7.865 4.913-1.809 2.594-3.678 5.112-5.602 7.552 0.751 0.593 1.499 1.201 2.244 1.822" fill="#fff"/></g></g></g></g></g></svg>
