<?xml version="1.0" encoding="UTF-8" standalone="no"?>
<svg
   xmlns:dc="http://purl.org/dc/elements/1.1/"
   xmlns:cc="http://creativecommons.org/ns#"
   xmlns:rdf="http://www.w3.org/1999/02/22-rdf-syntax-ns#"
   xmlns:svg="http://www.w3.org/2000/svg"
   xmlns="http://www.w3.org/2000/svg"
   viewBox="0 0 90.000023 90"
   height="90"
   width="90.000023"
   xml:space="preserve"
   version="1.1"
   id="svg2"><metadata
     id="metadata8"><rdf:RDF><cc:Work
         rdf:about=""><dc:format>image/svg+xml</dc:format><dc:type
           rdf:resource="http://purl.org/dc/dcmitype/StillImage" /><dc:title></dc:title></cc:Work></rdf:RDF></metadata><defs
     id="defs6"><clipPath
       id="clipPath16"
       clipPathUnits="userSpaceOnUse"><path
         id="path18"
         d="m 0,394.465 394.465,0 L 394.465,0 0,0 0,394.465 Z" /></clipPath><linearGradient
       id="linearGradient40"
       spreadMethod="pad"
       gradientTransform="matrix(3.2232981,-244.92137,-244.92137,-3.2232981,173.24258,304.05573)"
       gradientUnits="userSpaceOnUse"
       y2="0"
       x2="1"
       y1="0"
       x1="0"><stop
         id="stop42"
         offset="0"
         style="stop-opacity:1;stop-color:#a3c847" /><stop
         id="stop44"
         offset="0.00561798"
         style="stop-opacity:1;stop-color:#a3c847" /><stop
         id="stop46"
         offset="1"
         style="stop-opacity:1;stop-color:#59903c" /></linearGradient><linearGradient
       id="linearGradient62"
       spreadMethod="pad"
       gradientTransform="matrix(3.2234628,-244.93388,-244.93388,-3.2234628,222.41203,304.71194)"
       gradientUnits="userSpaceOnUse"
       y2="0"
       x2="1"
       y1="0"
       x1="0"><stop
         id="stop64"
         offset="0"
         style="stop-opacity:1;stop-color:#a3c847" /><stop
         id="stop66"
         offset="0.00561798"
         style="stop-opacity:1;stop-color:#a3c847" /><stop
         id="stop68"
         offset="1"
         style="stop-opacity:1;stop-color:#59903c" /></linearGradient><linearGradient
       id="linearGradient84"
       spreadMethod="pad"
       gradientTransform="matrix(3.2235129,-244.9377,-244.9377,-3.2235129,132.2139,303.52713)"
       gradientUnits="userSpaceOnUse"
       y2="0"
       x2="1"
       y1="0"
       x1="0"><stop
         id="stop86"
         offset="0"
         style="stop-opacity:1;stop-color:#a3c847" /><stop
         id="stop88"
         offset="0.00561798"
         style="stop-opacity:1;stop-color:#a3c847" /><stop
         id="stop90"
         offset="1"
         style="stop-opacity:1;stop-color:#59903c" /></linearGradient><clipPath
       id="clipPath98"
       clipPathUnits="userSpaceOnUse"><path
         id="path100"
         d="m 0,394.465 394.465,0 L 394.465,0 0,0 0,394.465 Z" /></clipPath></defs><g
     transform="matrix(1.25,0,0,-1.25,-3.7499999e-4,89.999998)"
     id="g10"><g
       transform="matrix(0.18252588,0,0,0.18252588,2.4524223e-4,0)"
       id="g4400"><g
         id="g12"><g
           id="g14"
           clip-path="url(#clipPath16)"><g
             id="g20"
             transform="translate(283.4043,111.0606)"><path
               d="m 0,0 c -11.311,-11.291 -24.838,-20.328 -39.549,-26.412 -14.717,-6.108 -30.592,-9.24 -46.623,-9.283 -16.031,0.043 -31.908,3.175 -46.623,9.283 -14.713,6.084 -28.238,15.121 -39.549,26.412 -11.291,11.309 -20.328,24.834 -26.414,39.549 -6.107,14.717 -9.238,30.595 -9.281,46.623 0.043,16.028 3.174,31.908 9.281,46.623 6.086,14.716 15.123,28.242 26.414,39.55 11.311,11.29 24.836,20.327 39.549,26.413 14.715,6.107 30.592,9.239 46.623,9.282 16.031,-0.043 31.906,-3.175 46.623,-9.282 C -24.838,192.672 -11.311,183.635 0,172.345 11.291,161.037 20.328,147.511 26.412,132.795 32.52,118.08 35.652,102.2 35.695,86.172 35.652,70.144 32.52,54.266 26.412,39.549 20.328,24.834 11.291,11.309 0,0 m 89.631,86.172 -0.643,13.213 c 7.473,3.075 14.987,6.468 22.073,10.165 -1.307,10.276 -3.157,20.454 -6.071,30.423 -8.08,0.682 -15.996,1.07 -24.191,1.027 l -4.565,12.455 c -1.693,4.077 -3.742,8.005 -5.629,12 5.694,5.699 11.35,11.759 16.471,17.888 -5.137,8.997 -10.805,17.635 -17.262,25.725 -7.664,-2.43 -15.236,-5.212 -22.757,-8.371 l -8.922,9.786 -9.783,8.917 c 3.162,7.523 5.943,15.097 8.373,22.758 -8.09,6.458 -16.729,12.127 -25.725,17.262 -6.135,-5.118 -12.191,-10.78 -17.889,-16.469 -3.996,1.886 -7.924,3.931 -12,5.629 l -12.457,4.568 c 0.045,8.191 -0.343,16.108 -1.029,24.187 -9.969,2.913 -20.146,4.767 -30.418,6.069 -3.697,-7.084 -7.096,-14.599 -10.166,-22.071 l -13.213,0.643 -13.213,-0.643 c -3.074,7.472 -6.472,14.987 -10.166,22.071 -10.275,-1.302 -20.453,-3.156 -30.422,-6.069 -0.681,-8.079 -1.07,-15.998 -1.031,-24.19 l -12.449,-4.565 c -4.078,-1.698 -8.01,-3.743 -12.002,-5.629 -5.701,5.689 -11.754,11.351 -17.887,16.469 -8.998,-5.135 -17.637,-10.804 -25.724,-17.262 2.429,-7.661 5.211,-15.235 8.369,-22.758 l -9.783,-8.917 -8.924,-9.786 c -7.518,3.159 -15.094,5.941 -22.754,8.367 -6.457,-8.086 -12.127,-16.724 -17.262,-25.721 5.121,-6.133 10.777,-12.189 16.469,-17.888 -1.885,-3.995 -3.934,-7.923 -5.629,-12 L -253.145,141 c -8.193,0.043 -16.111,-0.345 -24.189,-1.027 -2.914,-9.973 -4.768,-20.15 -6.07,-30.423 7.084,-3.697 14.599,-7.09 22.072,-10.165 l -0.643,-13.213 0.643,-13.213 c -7.473,-3.074 -14.988,-6.469 -22.072,-10.166 1.306,-10.275 3.156,-20.453 6.07,-30.42 8.078,-0.684 15.996,-1.072 24.189,-1.027 l 4.565,-12.457 c 1.695,-4.076 3.744,-8.004 5.629,-12 -5.692,-5.698 -11.348,-11.758 -16.469,-17.889 5.135,-8.996 10.805,-17.635 17.262,-25.725 7.664,2.43 15.236,5.211 22.758,8.373 l 8.92,-9.787 9.783,-8.918 c -3.158,-7.521 -5.94,-15.097 -8.369,-22.757 8.087,-6.457 16.726,-12.126 25.724,-17.262 6.133,5.117 12.19,10.781 17.887,16.471 3.994,-1.887 7.924,-3.934 12.002,-5.629 L -141,-80.803 c -0.043,-8.191 0.346,-16.107 1.031,-24.187 9.969,-2.914 20.147,-4.768 30.418,-6.071 3.697,7.086 7.096,14.6 10.166,22.073 l 13.213,-0.643 13.213,0.643 c 3.074,-7.473 6.473,-14.987 10.166,-22.073 10.275,1.303 20.453,3.157 30.42,6.071 0.684,8.08 1.072,15.998 1.033,24.191 l 12.451,4.565 c 4.076,1.695 8.008,3.742 12,5.629 5.702,-5.69 11.754,-11.35 17.889,-16.471 8.996,5.136 17.635,10.805 25.725,17.262 -2.43,7.66 -5.211,15.236 -8.373,22.757 l 9.783,8.918 8.926,9.787 c 7.517,-3.162 15.093,-5.943 22.753,-8.369 6.457,8.086 12.125,16.725 17.262,25.721 -5.121,6.135 -10.777,12.191 -16.471,17.889 1.887,3.996 3.936,7.924 5.629,12 l 4.565,12.457 c 8.195,-0.045 16.111,0.343 24.191,1.027 2.914,9.971 4.768,20.146 6.071,30.42 -7.086,3.697 -14.6,7.092 -22.073,10.166 l 0.643,13.213 z"
               style="fill:#675449;fill-opacity:1;fill-rule:nonzero;stroke:none"
               id="path22" /></g><g
             id="g24"
             transform="translate(269.5664,124.9004)"><path
               d="m 0,0 c -9.514,-9.49 -20.877,-17.078 -33.209,-22.174 -12.336,-5.115 -25.607,-7.74 -39.125,-7.791 -13.517,0.051 -26.789,2.676 -39.125,7.791 -12.332,5.096 -23.695,12.684 -33.209,22.174 -9.488,9.512 -17.076,20.875 -22.172,33.207 -5.115,12.336 -7.744,25.606 -7.789,39.125 0.045,13.52 2.674,26.79 7.789,39.125 5.096,12.332 12.684,23.696 22.172,33.207 9.514,9.49 20.877,17.079 33.209,22.174 12.336,5.115 25.608,7.741 39.125,7.79 13.518,-0.049 26.789,-2.675 39.125,-7.79 C -20.877,161.743 -9.514,154.154 0,144.664 9.488,135.153 17.076,123.789 22.172,111.457 27.287,99.122 29.916,85.852 29.963,72.332 29.916,58.813 27.287,45.543 22.172,33.207 17.076,20.875 9.488,9.512 0,0 m 34.676,116.641 c -5.783,13.981 -14.369,26.842 -25.104,37.597 -10.759,10.734 -23.613,19.326 -37.597,25.104 -13.979,5.801 -29.053,8.78 -44.309,8.822 -15.256,-0.042 -30.328,-3.021 -44.308,-8.822 -13.985,-5.778 -26.84,-14.37 -37.598,-25.104 -10.733,-10.755 -19.322,-23.616 -25.104,-37.597 -5.8,-13.979 -8.779,-29.052 -8.82,-44.309 0.041,-15.256 3.02,-30.33 8.82,-44.309 5.782,-13.98 14.371,-26.841 25.104,-37.597 10.758,-10.735 23.613,-19.324 37.598,-25.104 13.98,-5.802 29.052,-8.777 44.308,-8.82 15.256,0.043 30.33,3.018 44.309,8.82 13.984,5.78 26.838,14.369 37.597,25.104 10.735,10.756 19.321,23.617 25.104,37.597 5.803,13.979 8.777,29.053 8.82,44.309 -0.043,15.257 -3.017,30.33 -8.82,44.309"
               style="fill:#a58c7d;fill-opacity:1;fill-rule:nonzero;stroke:none"
               id="path26" /></g></g></g><g
         id="g28"><g
           id="g30"><g
             id="g36"><g
               id="g38"><path
                 d="m 173.453,102.352 14.679,4.191 c 0,0 -27.256,16.773 -8.388,60.798 l 0,0 c 0,0 -32.496,-30.396 -6.291,-64.989"
                 style="fill:url(#linearGradient40);stroke:none"
                 id="path48" /></g></g></g></g><g
         id="g50"><g
           id="g52"><g
             id="g58"><g
               id="g60"><path
                 d="m 181.359,183.073 49.771,37.419 -41.169,-47.601 c 77.396,-51.59 84.547,90.889 84.547,90.889 l 0,0 c -145.7,-18.646 -93.149,-80.707 -93.149,-80.707"
                 style="fill:url(#linearGradient62);stroke:none"
                 id="path70" /></g></g></g></g><g
         id="g72"><g
           id="g74"><g
             id="g80"><g
               id="g82"><path
                 d="m 97.275,210.268 c 29.002,-92.075 63.029,-50.87 63.029,-50.87 l 0,0 -29.988,27.844 35.577,-21.091 c 17.09,39.311 -23.537,45.182 -49.333,45.182 l 0,0 c -10.988,0 -19.285,-1.065 -19.285,-1.065"
                 style="fill:url(#linearGradient84);stroke:none"
                 id="path92" /></g></g></g></g><g
         id="g94"><g
           id="g96"
           clip-path="url(#clipPath98)"><g
             id="g102"
             transform="translate(60.2461,220.7696)"><path
               d="m 0,0 c -3.1,0.446 -5.065,-0.769 -5.902,-3.643 l 2.975,-0.428 C -1.459,-4.282 1.107,-4.556 4.769,-4.891 4.751,-2.085 3.162,-0.455 0,0 M 1.183,4.48 C 2.505,4.29 3.665,3.849 4.661,3.157 5.659,2.465 6.285,1.542 6.54,0.388 6.847,-1.006 6.805,-3.057 6.416,-5.763 L 5.885,-9.451 4.706,-10.167 c -3.615,0.667 -7.283,1.268 -11.002,1.804 -3.099,0.446 -5.94,0.781 -8.523,1.005 l -0.929,1.019 c 0.4,1.756 0.73,3.533 0.988,5.331 0.319,2.21 0.531,4.194 0.635,5.95 l 2.443,-1.268 c -0.42,-1.901 -0.686,-3.234 -0.797,-3.998 l -0.289,-2.015 5.223,-1.068 c 0.859,5.971 3.769,8.6 8.728,7.887"
               style="fill:#ffffff;fill-opacity:1;fill-rule:nonzero;stroke:none"
               id="path104" /></g><g
             id="g106"
             transform="translate(57.1846,238.7305)"><path
               d="M 0,0 C -2.581,0.69 -4.361,-0.109 -5.341,-2.396 -3.23,-3.069 -0.339,-3.895 3.331,-4.876 3.651,-2.305 2.541,-0.679 0,0 m 0.612,3.985 c 3.973,-1.062 5.333,-4.137 4.079,-9.226 1.827,-0.445 3.965,-0.855 6.413,-1.228 -0.226,-0.61 -0.434,-1.266 -0.624,-1.972 -0.178,-0.665 -0.32,-1.319 -0.426,-1.96 l -0.942,-0.494 c -2.977,0.904 -5.698,1.685 -8.158,2.343 -2.499,0.668 -5.175,1.329 -8.025,1.984 l -0.653,0.952 c 0.14,0.524 0.343,1.323 0.608,2.398 0.28,1.048 0.494,1.845 0.638,2.39 0.233,0.867 0.433,1.493 0.601,1.881 0.242,0.497 0.565,0.983 0.974,1.458 1.418,1.587 3.257,2.078 5.515,1.474"
               style="fill:#ffffff;fill-opacity:1;fill-rule:nonzero;stroke:none"
               id="path108" /></g><g
             id="g110"
             transform="translate(75.9121,255.8448)"><path
               d="M 0,0 0.567,-1.011 C 0.304,-1.489 0.023,-2.096 -0.277,-2.83 c -0.278,-0.677 -0.457,-1.2 -0.541,-1.571 -1.874,0.878 -4.413,1.973 -7.622,3.284 l -3.478,1.422 -0.023,-0.058 9.076,-9.901 c -0.44,-0.746 -0.94,-1.804 -1.5,-3.175 l -1.027,-0.359 c -2.839,1.274 -5.428,2.389 -7.765,3.344 -2.396,0.98 -4.966,1.974 -7.711,2.984 l -0.527,1.027 c 0.209,0.343 0.461,0.882 0.762,1.617 0.229,0.559 0.429,1.131 0.601,1.716 l 5.477,-2.239 c 1.739,-0.712 3.886,-1.668 6.438,-2.869 l 0.048,0.116 -5.876,6.393 c -0.893,0.906 -2.153,2.323 -3.778,4.25 0.393,0.742 0.844,1.731 1.349,2.967 l 0.897,0.209 C -13.14,5.259 -10.609,4.167 -7.885,3.054 -5.161,1.94 -2.533,0.922 0,0"
               style="fill:#ffffff;fill-opacity:1;fill-rule:nonzero;stroke:none"
               id="path112" /></g><g
             id="g114"
             transform="translate(83.5332,273.1792)"><path
               d="m 0,0 c 0.168,-1.132 0.532,-2.677 1.093,-4.636 -4.122,0.201 -8.312,0.344 -12.572,0.432 l 0.155,-0.991 c 2.928,-1.606 5.871,-3.103 8.829,-4.493 -0.388,-0.549 -0.768,-1.148 -1.142,-1.8 -0.384,-0.67 -0.686,-1.255 -0.901,-1.757 l -1.023,-0.208 c -2.656,1.621 -5.078,3.062 -7.268,4.32 -2.262,1.299 -4.673,2.634 -7.23,4.008 l -0.417,1.099 c 0.363,0.462 0.699,0.962 1.007,1.502 0.341,0.593 0.636,1.189 0.884,1.788 1.894,-1.353 3.737,-2.545 5.53,-3.574 -0.519,2.2 -1.352,5.483 -2.504,9.851 l 2.146,0.718 1.267,-6.216 C -8.146,-0.161 -4.098,-0.175 0,0"
               style="fill:#ffffff;fill-opacity:1;fill-rule:nonzero;stroke:none"
               id="path116" /></g><g
             id="g118"
             transform="translate(93.7315,282.4014)"><path
               d="m 0,0 c -1.228,-1.56 -2.123,-2.728 -2.686,-3.507 l -0.917,-1.269 c -0.83,-1.151 -1.615,-2.31 -2.353,-3.475 l -1.058,-0.125 c -2.465,1.908 -4.731,3.608 -6.8,5.102 -2.102,1.517 -4.362,3.084 -6.779,4.7 l -0.302,1.139 c 1.083,1.392 2.02,2.636 2.81,3.729 0.85,1.177 1.753,2.483 2.71,3.916 l 1.212,-1.906 c -0.62,-0.75 -1.243,-1.561 -1.871,-2.431 l -1.051,-1.457 5.111,-3.883 c -0.099,1.643 -0.245,3.099 -0.435,4.37 1.363,-0.11 2.838,-0.117 4.422,-0.026 0.152,-1.68 0.342,-3.092 0.572,-4.236 -1.536,-0.024 -2.987,-0.109 -4.355,-0.255 l 6.338,-4.382 0.238,0.331 c 0.061,0.084 0.156,0.215 0.284,0.394 0.129,0.177 0.223,0.308 0.284,0.393 0.794,1.1 1.552,2.239 2.273,3.417 L 0,0 Z"
               style="fill:#ffffff;fill-opacity:1;fill-rule:nonzero;stroke:none"
               id="path120" /></g><g
             id="g122"
             transform="translate(88.6162,304.0923)"><path
               d="m 0,0 1.095,-2.066 -2.084,-2.338 c 1.384,-1.458 3.144,-3.138 5.279,-5.041 2.213,-1.972 4.496,-3.897 6.851,-5.772 -0.395,-0.319 -0.941,-0.867 -1.635,-1.646 -0.514,-0.577 -0.878,-1.049 -1.095,-1.416 l -1.115,0.114 c -1.426,1.411 -3.276,3.13 -5.552,5.159 l -1.565,1.396 c -0.592,0.527 -2.051,1.729 -4.376,3.607 l -2.084,-2.337 -2.178,0.851 c 1.995,2.08 3.464,3.65 4.408,4.71 C -2.703,-3.268 -1.353,-1.675 0,0"
               style="fill:#ffffff;fill-opacity:1;fill-rule:nonzero;stroke:none"
               id="path124" /></g><g
             id="g126"
             transform="translate(113.8252,303.3677)"><path
               d="m 0,0 0.066,-1.157 c -0.446,-0.315 -0.965,-0.736 -1.557,-1.264 -0.545,-0.487 -0.938,-0.878 -1.176,-1.175 -1.298,1.612 -3.1,3.711 -5.406,6.297 l -2.501,2.804 -0.046,-0.042 3.809,-12.88 c -0.722,-0.476 -1.636,-1.208 -2.742,-2.194 l -1.08,0.129 c -1.991,2.389 -3.828,4.528 -5.51,6.413 -1.721,1.931 -3.595,3.953 -5.619,6.065 l -0.022,1.154 c 0.338,0.218 0.802,0.59 1.394,1.119 0.452,0.402 0.883,0.828 1.294,1.278 l 3.939,-4.417 c 1.25,-1.402 2.759,-3.203 4.525,-5.403 l 0.093,0.083 -2.473,8.325 c -0.404,1.205 -0.914,3.031 -1.528,5.476 0.679,0.493 1.518,1.184 2.514,2.074 l 0.898,-0.207 C -9.498,10.493 -7.703,8.402 -5.743,6.205 -3.784,4.008 -1.87,1.939 0,0"
               style="fill:#ffffff;fill-opacity:1;fill-rule:nonzero;stroke:none"
               id="path128" /></g><g
             id="g130"
             transform="translate(117.3633,319.9868)"><path
               d="m 0,0 c -1.512,2.202 -3.384,2.754 -5.615,1.653 1.166,-1.884 2.824,-4.392 4.974,-7.524 C 1.274,-4.125 1.488,-2.169 0,0 m 3.056,2.629 c 2.328,-3.39 1.36,-6.611 -2.9,-9.662 1.097,-1.525 2.454,-3.227 4.073,-5.104 -0.57,-0.314 -1.155,-0.678 -1.757,-1.092 -0.569,-0.39 -1.102,-0.794 -1.6,-1.211 l -1.037,0.237 c -1.673,2.624 -3.23,4.986 -4.673,7.086 -1.464,2.133 -3.066,4.375 -4.805,6.726 l 0.123,1.148 c 0.448,0.308 1.121,0.783 2.022,1.426 0.894,0.614 1.574,1.081 2.039,1.4 0.739,0.508 1.3,0.854 1.68,1.039 0.506,0.22 1.068,0.379 1.687,0.474 2.11,0.283 3.826,-0.539 5.148,-2.467"
               style="fill:#ffffff;fill-opacity:1;fill-rule:nonzero;stroke:none"
               id="path132" /></g><g
             id="g134"
             transform="translate(133.5977,333.8301)"><path
               d="m 0,0 c 0.918,-6.747 1.781,-12.188 2.586,-16.323 l 0.97,-5.088 -2.221,0.308 -0.602,3.795 c -1.251,1.107 -2.309,2.01 -3.177,2.706 -2.028,1.498 -5.064,3.738 -9.108,6.716 l -0.088,0.699 c 0.954,1.452 1.617,2.716 1.992,3.79 1.06,-0.972 2.546,-2.121 4.457,-3.445 2.462,-1.692 3.993,-2.769 4.592,-3.23 l 0.083,0.044 L -2.352,0.487 0,0 Z"
               style="fill:#ffffff;fill-opacity:1;fill-rule:nonzero;stroke:none"
               id="path136" /></g><g
             id="g138"
             transform="translate(157.6524,333.918)"><path
               d="M 0,0 C -1.572,4.426 -3.948,6.75 -7.127,6.972 -8.11,5.249 -8.12,3.031 -7.157,0.316 -5.599,-4.07 -3.239,-6.411 -0.078,-6.706 0.931,-4.93 0.957,-2.695 0,0 M 3.851,2.63 C 4.486,0.84 4.676,-0.909 4.418,-2.618 4.123,-4.472 3.318,-6.043 2.004,-7.329 1.207,-8.077 0.296,-8.633 -0.727,-8.996 -1.73,-9.353 -2.752,-9.472 -3.79,-9.353 c -1.668,0.206 -3.142,0.956 -4.421,2.251 -1.137,1.146 -2.008,2.566 -2.608,4.258 l -2.212,-0.786 c 0.97,-2.734 1.933,-5.294 2.892,-7.679 l -0.377,-0.997 c -0.651,-0.165 -1.3,-0.362 -1.95,-0.593 -0.63,-0.223 -1.228,-0.469 -1.797,-0.738 -0.999,3.123 -1.949,5.954 -2.849,8.491 -0.923,2.597 -1.929,5.274 -3.019,8.033 l 0.394,1.137 c 1.354,0.303 1.982,0.438 1.883,0.402 0.551,0.196 1.165,0.469 1.836,0.819 1.047,-3.262 1.806,-5.551 2.273,-6.869 l 2.302,0.817 c -0.445,2.19 -0.249,4.165 0.588,5.924 0.901,1.893 2.414,3.216 4.538,3.97 2.321,0.825 4.454,0.496 6.396,-0.984 C 1.748,6.835 3.005,5.01 3.851,2.63"
               style="fill:#ffffff;fill-opacity:1;fill-rule:nonzero;stroke:none"
               id="path140" /></g><g
             id="g142"
             transform="translate(192.5567,333.8941)"><path
               d="m 0,0 -0.306,-3.015 c -1.038,0.488 -4.14,0.37 -9.308,-0.351 l -4.932,-0.689 c -0.889,-0.124 -2.238,-0.344 -4.05,-0.659 -1.81,-0.316 -3.16,-0.537 -4.049,-0.661 l -0.833,0.769 c -0.25,2.536 -0.535,4.962 -0.859,7.278 l -0.347,2.481 c -0.262,1.881 -0.631,4.158 -1.11,6.831 l 0.565,0.934 c 0.62,0.085 1.229,0.171 1.83,0.254 0.62,0.087 1.219,0.171 1.798,0.251 0.132,-0.951 0.333,-2.387 0.602,-4.31 0.269,-1.923 0.469,-3.36 0.602,-4.311 0.118,-0.847 0.302,-2.096 0.554,-3.748 0.251,-1.651 0.436,-2.9 0.554,-3.747 l 4.467,0.623 c -0.222,2.498 -0.457,4.626 -0.702,6.384 -0.095,0.681 -0.267,1.69 -0.518,3.025 -0.249,1.335 -0.42,2.333 -0.513,2.995 l 0.512,0.862 2.698,0.377 0.605,-0.706 c 0.093,-0.662 0.201,-1.669 0.327,-3.021 0.126,-1.353 0.236,-2.37 0.331,-3.053 0.273,-1.963 0.633,-4.074 1.074,-6.33 l 4.652,0.649 c -0.117,0.827 -0.271,2.049 -0.465,3.666 -0.195,1.617 -0.349,2.838 -0.464,3.666 -0.136,0.971 -0.356,2.436 -0.662,4.397 -0.305,1.959 -0.525,3.424 -0.66,4.396 0.846,0.119 1.446,0.202 1.797,0.252 0.58,0.08 1.189,0.166 1.831,0.255 l 0.83,-0.738 c 0.325,-3.094 0.666,-5.903 1.017,-8.425 0.306,-2.192 0.679,-4.479 1.116,-6.863 L 0,0 Z"
               style="fill:#ffffff;fill-opacity:1;fill-rule:nonzero;stroke:none"
               id="path144" /></g><g
             id="g146"
             transform="translate(209.9248,331.751)"><path
               d="m 0,0 -0.751,-0.882 c -0.54,0.082 -1.207,0.137 -1.999,0.165 -0.731,0.027 -1.285,0.015 -1.662,-0.034 0.178,2.062 0.328,4.823 0.452,8.287 l 0.134,3.754 -0.063,0.002 -6.159,-11.935 c -0.851,0.155 -2.017,0.259 -3.499,0.312 l -0.69,0.84 c 0.216,3.103 0.368,5.918 0.459,8.442 0.092,2.586 0.137,5.342 0.137,8.267 l 0.783,0.849 c 0.393,-0.077 0.987,-0.13 1.78,-0.158 0.604,-0.021 1.211,-0.011 1.818,0.03 L -9.471,12.025 C -9.537,10.147 -9.695,7.803 -9.94,4.992 l 0.125,-0.005 3.971,7.723 c 0.543,1.15 1.438,2.82 2.686,5.011 0.831,-0.114 1.915,-0.194 3.25,-0.242 L 0.597,16.71 C 0.401,14.147 0.251,11.395 0.146,8.454 0.041,5.513 -0.008,2.694 0,0"
               style="fill:#ffffff;fill-opacity:1;fill-rule:nonzero;stroke:none"
               id="path148" /></g><g
             id="g150"
             transform="translate(224.628,328.6573)"><path
               d="M 0,0 C -1.947,0.388 -3.395,0.656 -4.343,0.804 L -5.89,1.046 c -1.403,0.219 -2.791,0.393 -4.165,0.523 l -0.59,0.886 c 0.583,3.062 1.072,5.854 1.465,8.374 0.4,2.562 0.772,5.287 1.117,8.174 l 0.878,0.784 c 1.733,-0.334 3.265,-0.605 4.599,-0.813 1.434,-0.224 3.007,-0.438 4.718,-0.641 l -1.15,-1.944 c -0.949,0.211 -1.954,0.4 -3.015,0.565 l -1.775,0.277 -1.144,-6.317 c 1.419,0.835 2.651,1.625 3.697,2.37 0.52,-1.265 1.182,-2.583 1.982,-3.955 C -0.702,8.433 -1.875,7.624 -2.79,6.9 -3.508,8.259 -4.241,9.514 -4.99,10.666 L -6.024,3.032 -5.622,2.969 C -5.52,2.953 -5.358,2.928 -5.142,2.894 -4.927,2.86 -4.766,2.835 -4.662,2.819 -3.323,2.61 -1.964,2.45 -0.586,2.341 L 0,0 Z"
               style="fill:#ffffff;fill-opacity:1;fill-rule:nonzero;stroke:none"
               id="path152" /></g><g
             id="g154"
             transform="translate(249.7657,340.4566)"><path
               d="m 0,0 -1.439,-1.842 -2.985,0.95 c -0.766,-1.859 -1.583,-4.151 -2.452,-6.876 -0.898,-2.824 -1.725,-5.694 -2.477,-8.61 -0.452,0.232 -1.176,0.507 -2.17,0.824 -0.737,0.234 -1.316,0.374 -1.739,0.422 l -0.35,1.064 c 0.707,1.878 1.522,4.269 2.447,7.173 l 0.636,1.999 c 0.242,0.755 0.745,2.578 1.51,5.466 l -2.983,0.951 -0.111,2.335 C -9.399,2.882 -7.367,2.181 -6.014,1.75 -4.085,1.136 -2.079,0.552 0,0"
               style="fill:#ffffff;fill-opacity:1;fill-rule:nonzero;stroke:none"
               id="path156" /></g><g
             id="g158"
             transform="translate(255.876,317.9278)"><path
               d="m 0,0 c -1.791,0.856 -3.127,1.474 -4.009,1.852 l -1.439,0.616 c -1.306,0.559 -2.608,1.07 -3.907,1.536 l -0.353,1.004 c 1.321,2.823 2.484,5.407 3.488,7.753 1.021,2.384 2.055,4.931 3.102,7.645 l 1.045,0.541 c 1.596,-0.751 3.014,-1.392 4.255,-1.923 1.335,-0.571 2.805,-1.167 4.414,-1.787 l -1.594,-1.6 C 4.134,16.078 3.205,16.508 2.22,16.93 l -1.653,0.707 -2.669,-5.839 c 1.581,0.458 2.97,0.92 4.168,1.383 C 2.259,11.827 2.573,10.387 3.01,8.861 1.404,8.344 0.068,7.849 -0.998,7.375 -1.358,8.868 -1.759,10.266 -2.2,11.567 L -5.088,4.425 -4.713,4.265 C -4.618,4.224 -4.469,4.16 -4.267,4.074 -4.065,3.988 -3.917,3.924 -3.82,3.883 -2.574,3.349 -1.296,2.859 0.012,2.413 L 0,0 Z"
               style="fill:#ffffff;fill-opacity:1;fill-rule:nonzero;stroke:none"
               id="path160" /></g><g
             id="g162"
             transform="translate(270.3838,313.333)"><path
               d="m 0,0 c -1.033,-0.304 -2.578,-0.775 -4.636,-1.412 0.066,2.931 0.016,5.569 -0.152,7.914 l -7.514,-3.789 0.162,2.782 7.214,3.383 c -0.096,1.873 -0.37,4.564 -0.818,8.072 l 0.496,0.691 c 1.233,0.193 2.659,0.577 4.275,1.154 -0.073,-2.688 -0.03,-5.19 0.13,-7.506 L 6.453,14.625 6.307,12.126 -0.662,8.797 C -0.362,6.262 0.017,3.611 0.475,0.845 L 0,0 Z"
               style="fill:#ffffff;fill-opacity:1;fill-rule:nonzero;stroke:none"
               id="path164" /></g><g
             id="g166"
             transform="translate(283.2178,301.3365)"><path
               d="m 0,0 -1.042,-0.213 c -0.438,0.393 -0.919,0.779 -1.443,1.157 -0.492,0.355 -1.001,0.684 -1.528,0.987 1.553,2.046 3.156,4.21 4.805,6.495 l -4.545,3.281 -1.118,-1.549 C -6.105,8.448 -7.308,6.781 -8.48,5.157 -8.919,5.55 -9.391,5.929 -9.898,6.295 c -0.509,0.367 -1.018,0.696 -1.528,0.987 l -0.127,1.057 c 1.94,2.436 3.654,4.686 5.146,6.751 1.513,2.099 3.06,4.368 4.641,6.806 l 1.142,0.296 c 0.435,-0.392 0.9,-0.767 1.392,-1.12 0.387,-0.281 0.897,-0.61 1.527,-0.988 -1.41,-1.954 -2.546,-3.525 -3.403,-4.714 l -1.362,-1.887 4.543,-3.279 1.841,2.548 c 0.92,1.274 1.869,2.644 2.849,4.107 0.572,-0.49 1.045,-0.87 1.418,-1.139 0.49,-0.354 1.008,-0.689 1.553,-1.005 L 9.785,13.558 C 8.21,11.554 6.561,9.358 4.84,6.972 3.117,4.585 1.503,2.261 0,0"
               style="fill:#ffffff;fill-opacity:1;fill-rule:nonzero;stroke:none"
               id="path168" /></g><g
             id="g170"
             transform="translate(299.1172,296.065)"><path
               d="M 0,0 C 3.282,3.359 4.272,6.567 2.967,9.622 0.957,9.805 -1.062,8.859 -3.09,6.784 -6.329,3.47 -7.354,0.284 -6.167,-2.772 -4.055,-2.97 -1.999,-2.045 0,0 m 4.37,-2.606 c -1.751,-1.792 -3.718,-2.803 -5.899,-3.035 -2.713,-0.268 -5.047,0.554 -7.003,2.465 -1.807,1.765 -2.54,3.868 -2.198,6.307 0.313,2.203 1.353,4.208 3.118,6.015 1.853,1.895 3.945,2.945 6.274,3.149 C 1.139,12.501 3.341,11.663 5.267,9.781 7.104,7.986 7.852,5.87 7.511,3.431 7.211,1.242 6.164,-0.77 4.37,-2.606"
               style="fill:#ffffff;fill-opacity:1;fill-rule:nonzero;stroke:none"
               id="path172" /></g><g
             id="g174"
             transform="translate(308.836,276.2388)"><path
               d="m 0,0 c -1.402,0.347 -3.049,0.632 -4.94,0.855 2.258,3.39 4.312,7.136 6.161,11.239 -4.258,-1.165 -8.582,-2.077 -12.976,-2.737 l 0.643,2.402 c 3.308,0.511 7.795,1.472 13.459,2.884 L 3.434,17.24 C 4.638,16.974 6.188,16.692 8.086,16.395 5.67,10.765 2.974,5.301 0,0"
               style="fill:#ffffff;fill-opacity:1;fill-rule:nonzero;stroke:none"
               id="path176" /></g><g
             id="g178"
             transform="translate(320.2168,267.8584)"><path
               d="M 0,0 C 4.014,2.439 5.769,5.299 5.264,8.583 3.362,9.261 1.172,8.845 -1.309,7.34 -5.268,4.934 -7.054,2.104 -6.664,-1.152 -4.666,-1.869 -2.444,-1.484 0,0 m 3.585,-3.609 c -2.142,-1.302 -4.297,-1.793 -6.468,-1.475 -2.695,0.415 -4.752,1.791 -6.171,4.127 -1.311,2.16 -1.5,4.378 -0.562,6.657 0.85,2.055 2.356,3.739 4.514,5.05 2.266,1.376 4.553,1.874 6.861,1.493 C 4.21,11.826 6.135,10.468 7.531,8.167 8.865,5.972 9.063,3.736 8.127,1.457 7.293,-0.588 5.779,-2.277 3.585,-3.609"
               style="fill:#ffffff;fill-opacity:1;fill-rule:nonzero;stroke:none"
               id="path180" /></g><g
             id="g182"
             transform="translate(338.0049,255.314)"><path
               d="M 0,0 -2.392,-0.264 C -2.709,0.785 -3.065,1.746 -3.464,2.62 L -4.19,4.215 c -1.989,-0.721 -4.189,-1.632 -6.601,-2.73 -2.451,-1.116 -5.23,-2.543 -8.339,-4.279 -0.228,0.652 -0.49,1.302 -0.784,1.948 -0.277,0.608 -0.574,1.184 -0.891,1.727 l 0.446,0.995 c 3.854,1.594 6.486,2.712 7.897,3.355 1.486,0.677 3.962,1.886 7.429,3.623 L -3.88,8.52 C -3.176,6.57 -2.606,5.12 -2.174,4.17 -1.689,3.106 -0.965,1.717 0,0"
               style="fill:#ffffff;fill-opacity:1;fill-rule:nonzero;stroke:none"
               id="path184" /></g><g
             id="g186"
             transform="translate(327.3721,231.5469)"><path
               d="m 0,0 -1.084,0.409 c -0.106,0.536 -0.28,1.182 -0.522,1.937 -0.223,0.695 -0.422,1.213 -0.596,1.551 2.001,0.531 4.649,1.326 7.95,2.383 L 9.326,7.427 9.307,7.486 -4.012,9.236 c -0.141,0.854 -0.438,1.986 -0.89,3.397 l 0.556,0.934 c 2.992,0.85 5.693,1.66 8.098,2.431 2.465,0.789 5.073,1.68 7.824,2.671 l 1.065,-0.448 c 0.061,-0.397 0.212,-0.973 0.455,-1.729 0.184,-0.576 0.399,-1.143 0.643,-1.701 L 8.103,12.986 C 6.314,12.413 4.056,11.767 1.328,11.045 L 1.365,10.926 9.977,9.806 C 11.244,9.685 13.118,9.409 15.602,8.977 15.778,8.157 16.069,7.11 16.476,5.838 L 15.923,5.102 C 13.446,4.418 10.807,3.626 8.004,2.729 5.2,1.831 2.532,0.921 0,0"
               style="fill:#ffffff;fill-opacity:1;fill-rule:nonzero;stroke:none"
               id="path188" /></g><g
             id="g190"
             transform="translate(330.7539,213.3379)"><path
               d="M 0,0 -1.017,0.553 C -1.05,1.1 -1.134,1.763 -1.27,2.543 -1.395,3.264 -1.521,3.803 -1.646,4.162 0.406,4.415 3.14,4.839 6.553,5.436 l 3.701,0.645 -0.01,0.062 -12.953,3.555 c -0.024,0.865 -0.163,2.027 -0.418,3.487 l 0.678,0.85 c 3.082,0.432 5.866,0.865 8.355,1.299 2.55,0.445 5.255,0.971 8.117,1.576 l 0.992,-0.59 c 0.007,-0.401 0.078,-0.992 0.215,-1.774 0.103,-0.596 0.238,-1.187 0.404,-1.773 L 9.805,11.756 C 7.953,11.433 5.627,11.101 2.827,10.76 l 0.021,-0.123 8.378,-2.289 c 1.237,-0.292 3.055,-0.822 5.458,-1.589 0.061,-0.837 0.207,-1.913 0.437,-3.23 L 16.472,2.875 C 13.925,2.537 11.202,2.114 8.302,1.608 5.402,1.102 2.635,0.566 0,0"
               style="fill:#ffffff;fill-opacity:1;fill-rule:nonzero;stroke:none"
               id="path192" /></g><g
             id="g194"
             transform="translate(58.5025,161.0362)"><path
               d="M 0,0 C 1.838,0.447 2.262,3.134 1.602,8.282 -0.448,7.92 -2.498,7.559 -4.548,7.196 -3.441,1.87 -1.813,-0.428 0,0 M 6.727,2.785 C 8.653,3.232 9.202,5.423 8.597,9.517 6.583,9.161 4.567,8.806 2.553,8.45 2.938,6.58 3.483,5.146 4.156,4.133 4.925,3.009 5.787,2.573 6.727,2.785 m -5.121,-9.06 c -1.717,-0.487 -3.309,0.539 -4.687,3.22 -0.785,1.51 -1.713,4.573 -2.539,9.354 -0.376,2.185 -0.714,4.401 -1.012,6.645 0.17,0.419 0.341,0.836 0.513,1.253 2.668,0.122 5.083,0.331 7.245,0.609 2.197,0.282 4.514,0.682 6.955,1.185 0.305,-0.35 0.612,-0.698 0.92,-1.042 0.197,-1.483 0.414,-2.951 0.65,-4.405 C 10.322,6.436 10.772,3.791 10.804,2.446 10.868,-0.765 10.176,-2.571 8.585,-3.012 6.917,-3.468 5.312,-2.031 3.926,1.512 4.308,-3.138 3.63,-5.689 1.606,-6.275"
               style="fill:#ffffff;fill-opacity:1;fill-rule:nonzero;stroke:none"
               id="path196" /></g><g
             id="g198"
             transform="translate(70.5342,142.8565)"><path
               d="M 0,0 C 2.004,0.812 2.473,2.955 1.598,6.55 -1.262,5.729 -3.22,5.145 -4.269,4.777 -4.599,4.661 -4.929,4.546 -5.259,4.431 -3.792,0.613 -1.971,-0.794 0,0 m -4.774,-11.061 c -1.439,1.23 -3.037,2.43 -4.798,3.619 1.375,3.357 2.704,6.543 3.967,9.579 -0.218,0.645 -0.433,1.295 -0.643,1.947 -1.979,-0.754 -3.904,-1.645 -5.767,-2.691 -0.321,0.983 -0.65,2.019 -0.981,3.11 -0.303,0.996 -0.584,1.955 -0.843,2.87 0.115,0.414 0.232,0.826 0.351,1.239 2.598,0.608 4.934,1.23 7.008,1.855 2.125,0.641 4.367,1.399 6.728,2.262 0.344,-0.27 0.688,-0.537 1.033,-0.8 C 1.499,11.162 1.834,10.001 2.312,8.468 2.791,6.936 3.169,5.812 3.42,5.074 3.858,3.79 4.175,2.8 4.351,2.084 4.526,1.369 4.619,0.553 4.631,-0.371 4.731,-2.954 4.024,-4.608 2.403,-5.343 0.56,-6.176 -1.169,-5.533 -2.712,-3.289 -3.621,-6.158 -4.293,-8.761 -4.774,-11.061"
               style="fill:#ffffff;fill-opacity:1;fill-rule:nonzero;stroke:none"
               id="path200" /></g><g
             id="g202"
             transform="translate(68.8951,121.5928)"><path
               d="m 0,0 c -0.359,0.197 -0.719,0.396 -1.078,0.598 -0.386,0.862 -0.806,1.745 -1.253,2.65 -0.447,0.905 -0.889,1.766 -1.33,2.577 2.561,1.143 4.885,2.242 6.975,3.291 2.105,1.056 4.275,2.211 6.511,3.453 0.381,-0.196 0.76,-0.389 1.141,-0.58 0.319,-0.793 0.657,-1.542 1.013,-2.249 C 12.285,9.132 12.711,8.354 13.266,7.424 11.14,6.391 8.895,5.22 6.531,3.902 4.169,2.586 1.989,1.289 0,0"
               style="fill:#ffffff;fill-opacity:1;fill-rule:nonzero;stroke:none"
               id="path204" /></g><g
             id="g206"
             transform="translate(84.8379,107.2696)"><path
               d="M 0,0 C 3.223,2.487 4.105,5.563 2.906,9.309 0.936,10.26 -1.089,10.093 -3.175,8.699 -6.516,6.48 -7.627,3.345 -6.243,-0.621 -4.043,-1.752 -1.959,-1.503 0,0 m -1.713,-10.034 c -1.901,0.963 -3.808,1.631 -5.744,1.987 0.207,1.924 0.197,4.077 0.005,6.466 -0.554,0.623 -1.023,1.219 -1.41,1.783 -1.918,2.8 -2.603,5.609 -2.086,8.243 0.441,2.241 1.599,3.89 3.401,4.98 1.928,1.168 4.015,1.315 6.258,0.569 C 1.164,13.15 3.27,11.363 5.176,8.638 6.947,6.109 7.716,3.68 7.463,1.179 7.245,-1.014 6.36,-2.809 4.727,-4.18 2.699,-5.883 0.214,-6.131 -2.714,-4.709 c 0.088,-1.738 0.419,-3.521 1.001,-5.325"
               style="fill:#ffffff;fill-opacity:1;fill-rule:nonzero;stroke:none"
               id="path208" /></g><g
             id="g210"
             transform="translate(99.2647,83.0772)"><path
               d="m 0,0 c -0.396,0.048 -0.793,0.097 -1.19,0.148 -0.599,0.534 -1.225,1.1 -1.877,1.704 -0.612,0.566 -1.218,1.136 -1.82,1.715 0.337,0.226 0.733,0.574 1.183,1.042 0.169,0.176 0.339,0.352 0.508,0.528 -3.43,1.034 -5.921,2.451 -7.413,4.063 -1.552,1.679 -2.071,3.287 -1.584,4.738 0.265,0.88 1.045,1.873 2.329,2.983 0.717,0.621 1.434,1.241 2.151,1.862 1.284,1.11 2.939,2.635 4.974,4.563 0.401,-0.067 0.802,-0.131 1.201,-0.194 0.487,-0.673 0.965,-1.267 1.43,-1.786 0.173,-0.191 0.445,-0.467 0.819,-0.823 0.375,-0.355 0.651,-0.623 0.827,-0.812 -0.239,-0.117 -0.687,-0.485 -1.347,-1.103 -0.555,-0.52 -1.391,-1.283 -2.505,-2.29 -1.115,-1.009 -1.95,-1.771 -2.505,-2.29 -0.463,-0.434 -0.897,-0.896 -1.303,-1.389 -1.21,-1.433 -1.06,-2.975 0.493,-4.554 0.894,-0.906 2.025,-1.576 3.374,-1.991 0.289,0.299 0.722,0.75 1.299,1.349 0.578,0.6 1.01,1.049 1.299,1.35 1.168,1.211 2.336,2.424 3.504,3.637 0.576,0.599 1.351,1.462 2.327,2.583 C 6.79,14.341 7.31,13.807 7.725,13.423 8.27,12.918 8.844,12.446 9.446,12.007 9.5,11.608 9.556,11.209 9.613,10.811 8.021,9.251 6.374,7.526 4.678,5.626 2.983,3.726 1.42,1.854 0,0"
               style="fill:#ffffff;fill-opacity:1;fill-rule:nonzero;stroke:none"
               id="path212" /></g><g
             id="g214"
             transform="translate(111.7725,72.4707)"><path
               d="m 0,0 c -2.162,1.57 -3.736,2.78 -4.772,3.557 -0.564,0.423 -1.124,0.85 -1.682,1.283 -1.518,1.176 -3.011,2.339 -4.489,3.491 -0.102,0.382 -0.202,0.764 -0.3,1.146 1.874,1.943 3.53,3.752 4.975,5.419 1.469,1.696 2.975,3.537 4.528,5.517 0.403,0.001 0.805,0.003 1.207,0.008 C 1.065,19.002 2.523,17.81 3.815,16.818 5.207,15.751 6.764,14.637 8.496,13.498 7.869,13.198 7.238,12.902 6.605,12.609 5.67,13.339 4.678,14.094 3.63,14.884 3.046,15.324 2.466,15.771 1.889,16.222 0.683,14.816 -0.525,13.412 -1.736,12.01 0.106,11.713 1.722,11.549 3.114,11.491 3.219,10.159 3.476,8.694 3.903,7.102 2.014,7.252 0.429,7.359 -0.849,7.385 -1.163,8.943 -1.502,10.428 -1.871,11.842 -3.207,10.068 -4.541,8.292 -5.873,6.515 -5.73,6.403 -5.587,6.292 -5.444,6.182 -5.333,6.096 -5.162,5.963 -4.93,5.784 -4.698,5.607 -4.527,5.476 -4.415,5.392 -2.973,4.295 -1.472,3.255 0.083,2.279 0.05,1.521 0.022,0.761 0,0"
               style="fill:#ffffff;fill-opacity:1;fill-rule:nonzero;stroke:none"
               id="path216" /></g><g
             id="g218"
             transform="translate(135.6607,76.7168)"><path
               d="m 0,0 c -0.58,-0.402 -1.163,-0.803 -1.75,-1.198 -1.127,0.577 -2.246,1.171 -3.356,1.782 -1.21,-1.697 -2.512,-3.734 -3.893,-6.119 -1.372,-2.369 -2.432,-4.333 -3.173,-5.899 -0.76,0.418 -1.528,0.851 -2.304,1.297 -0.777,0.448 -1.537,0.895 -2.281,1.342 -0.157,0.357 -0.312,0.714 -0.465,1.071 1.036,1.373 2.198,3.081 3.489,5.123 1.281,2.025 2.465,4.069 3.56,6.124 -1.083,0.662 -2.158,1.34 -3.222,2.035 0.071,0.696 0.147,1.389 0.228,2.083 2.446,-1.71 4.636,-3.08 6.519,-4.171 C -5.282,2.682 -3.087,1.476 0,0"
               style="fill:#ffffff;fill-opacity:1;fill-rule:nonzero;stroke:none"
               id="path220" /></g><g
             id="g222"
             transform="translate(149.3067,70.7969)"><path
               d="m 0,0 c -0.53,-0.465 -1.064,-0.926 -1.602,-1.386 -1.182,0.447 -2.358,0.908 -3.527,1.387 -1.01,-1.818 -2.072,-3.984 -3.174,-6.503 -1.093,-2.503 -1.925,-4.568 -2.484,-6.203 -0.799,0.328 -1.61,0.668 -2.43,1.022 -0.82,0.354 -1.624,0.709 -2.412,1.066 -0.195,0.335 -0.389,0.671 -0.58,1.006 0.873,1.478 1.833,3.302 2.884,5.471 1.043,2.152 1.987,4.311 2.842,6.47 -1.148,0.529 -2.289,1.076 -3.423,1.639 -0.007,0.696 -0.009,1.391 -0.007,2.086 C -11.296,4.65 -8.972,3.547 -6.982,2.684 -5.54,2.06 -3.228,1.115 0,0"
               style="fill:#ffffff;fill-opacity:1;fill-rule:nonzero;stroke:none"
               id="path224" /></g><g
             id="g226"
             transform="translate(160.2144,51.0313)"><path
               d="m 0,0 c -2.557,0.697 -4.439,1.257 -5.671,1.605 -0.67,0.191 -1.339,0.386 -2.006,0.586 -1.817,0.543 -3.605,1.078 -5.372,1.603 -0.227,0.314 -0.452,0.629 -0.676,0.944 1.06,2.467 1.965,4.731 2.724,6.787 0.772,2.091 1.526,4.33 2.276,6.715 0.373,0.147 0.745,0.295 1.115,0.445 1.971,-0.728 3.737,-1.304 5.28,-1.758 1.662,-0.489 3.496,-0.968 5.502,-1.412 -0.478,-0.5 -0.96,-0.997 -1.446,-1.492 -1.122,0.346 -2.306,0.693 -3.553,1.05 -0.695,0.199 -1.389,0.404 -2.081,0.614 -0.628,-1.73 -1.259,-3.458 -1.893,-5.187 1.811,0.386 3.366,0.81 4.678,1.251 0.562,-1.195 1.312,-2.461 2.266,-3.788 -1.807,-0.526 -3.316,-0.99 -4.51,-1.42 -0.835,1.329 -1.666,2.581 -2.5,3.754 C -6.488,8.181 -7.107,6.064 -7.722,3.945 -7.551,3.894 -7.38,3.843 -7.208,3.791 -7.076,3.752 -6.871,3.69 -6.594,3.608 -6.316,3.527 -6.113,3.468 -5.98,3.429 -4.26,2.93 -2.504,2.5 -0.72,2.144 -0.486,1.429 -0.246,0.715 0,0"
               style="fill:#ffffff;fill-opacity:1;fill-rule:nonzero;stroke:none"
               id="path228" /></g><g
             id="g230"
             transform="translate(178.5581,55.9571)"><path
               d="M 0,0 C 0.545,4.125 -1.437,6.449 -5.884,7.294 -6.364,5.181 -6.814,3.044 -7.228,0.883 -7.635,-1.243 -8.009,-3.411 -8.347,-5.623 -3.349,-6.236 -0.56,-4.241 0,0 M 5.928,-0.689 C 5.488,-6.021 0.574,-8.512 -8.64,-6.934 c -1.579,0.279 -3.153,0.582 -4.723,0.911 -0.264,0.283 -0.527,0.567 -0.788,0.852 0.737,2.569 1.346,4.921 1.837,7.048 0.498,2.163 0.962,4.471 1.402,6.922 0.365,0.186 0.728,0.375 1.089,0.565 1.475,-0.307 2.954,-0.59 4.438,-0.849 C -1.806,7.893 0.691,7.27 2.106,6.469 4.901,4.863 6.223,2.52 5.928,-0.689"
               style="fill:#ffffff;fill-opacity:1;fill-rule:nonzero;stroke:none"
               id="path232" /></g><g
             id="g234"
             transform="translate(210.919,62.92)"><path
               d="m 0,0 c -0.259,-0.645 -0.523,-1.287 -0.792,-1.93 -1.259,-0.11 -2.519,-0.204 -3.781,-0.281 -0.065,-2.062 -0.017,-4.459 0.158,-7.188 0.174,-2.711 0.382,-4.917 0.635,-6.622 -0.864,-0.051 -1.742,-0.098 -2.633,-0.137 -0.894,-0.039 -1.771,-0.071 -2.635,-0.094 -0.327,0.215 -0.653,0.43 -0.977,0.647 0.098,1.7 0.116,3.747 0.057,6.14 -0.058,2.375 -0.208,4.715 -0.437,7.015 -1.264,-0.027 -2.528,-0.036 -3.792,-0.029 -0.324,0.618 -0.644,1.237 -0.96,1.857 2.965,-0.107 5.537,-0.083 7.704,0.007 C -5.884,-0.548 -3.393,-0.391 0,0"
               style="fill:#ffffff;fill-opacity:1;fill-rule:nonzero;stroke:none"
               id="path236" /></g><g
             id="g238"
             transform="translate(229.7666,49.8897)"><path
               d="m 0,0 c -2.61,-0.47 -4.553,-0.774 -5.815,-0.987 -0.688,-0.117 -1.375,-0.229 -2.064,-0.335 -1.874,-0.292 -3.718,-0.579 -5.537,-0.869 -0.348,0.185 -0.693,0.37 -1.038,0.556 -0.187,2.664 -0.42,5.079 -0.688,7.248 -0.273,2.204 -0.628,4.532 -1.055,6.989 0.265,0.292 0.529,0.584 0.791,0.877 2.095,0.196 3.938,0.437 5.527,0.69 1.712,0.273 3.572,0.63 5.573,1.09 -0.197,-0.653 -0.4,-1.304 -0.607,-1.955 -1.163,-0.17 -2.383,-0.366 -3.663,-0.58 -0.713,-0.12 -1.428,-0.233 -2.143,-0.341 0.235,-1.82 0.465,-3.638 0.695,-5.457 1.44,1.121 2.637,2.166 3.608,3.123 1.053,-0.83 2.307,-1.644 3.771,-2.425 C -4.02,6.38 -5.156,5.318 -6.026,4.422 -7.386,5.257 -8.705,6.02 -9.99,6.714 -9.572,4.553 -9.15,2.392 -8.727,0.23 c 0.177,0.028 0.354,0.054 0.531,0.081 0.137,0.022 0.348,0.055 0.634,0.1 0.286,0.046 0.495,0.08 0.631,0.103 1.768,0.289 3.538,0.655 5.299,1.099 C -1.093,1.073 -0.549,0.535 0,0"
               style="fill:#ffffff;fill-opacity:1;fill-rule:nonzero;stroke:none"
               id="path240" /></g><g
             id="g242"
             transform="translate(246.7032,57.8086)"><path
               d="m 0,0 c -0.686,-1.35 -1.399,-2.696 -2.138,-4.038 -0.536,-0.243 -1.232,-0.497 -2.087,-0.752 -3.29,-0.981 -6.131,-0.89 -8.392,0.183 -2.013,0.969 -3.245,2.554 -3.761,4.694 -0.528,2.193 -0.126,4.211 1.112,6.078 1.373,2.068 3.526,3.489 6.525,4.393 0.927,0.28 1.762,0.486 2.508,0.613 0.635,-0.464 1.275,-0.925 1.92,-1.381 C -5.656,9.495 -6.544,9.293 -6.979,9.157 -8.977,8.536 -10.326,7.626 -11.047,6.369 -11.66,5.291 -11.776,4.04 -11.37,2.608 c 0.468,-1.653 1.472,-2.829 3.05,-3.487 1.676,-0.723 3.813,-0.706 6.336,0.108 0.336,0.11 1,0.362 1.984,0.771"
               style="fill:#ffffff;fill-opacity:1;fill-rule:nonzero;stroke:none"
               id="path244" /></g><g
             id="g246"
             transform="translate(267.2686,63.7725)"><path
               d="m 0,0 c -0.179,-0.344 -0.359,-0.687 -0.541,-1.031 -0.724,-0.302 -1.475,-0.644 -2.254,-1.02 -0.73,-0.351 -1.449,-0.719 -2.161,-1.107 -0.893,2.023 -1.874,4.126 -2.94,6.306 -2.161,-0.999 -4.346,-1.942 -6.553,-2.83 0.215,-0.504 0.429,-1.007 0.645,-1.511 0.713,-1.67 1.408,-3.295 2.085,-4.882 -0.746,-0.24 -1.508,-0.513 -2.288,-0.812 -0.78,-0.3 -1.529,-0.606 -2.242,-0.925 -0.383,0.1 -0.764,0.201 -1.145,0.302 -0.77,2.564 -1.554,4.867 -2.338,6.911 -0.797,2.078 -1.731,4.249 -2.784,6.523 0.191,0.344 0.378,0.689 0.564,1.034 0.675,0.188 1.35,0.412 2.025,0.671 0.534,0.204 1.198,0.491 1.985,0.866 0.815,-1.907 1.47,-3.441 1.965,-4.602 0.263,-0.614 0.525,-1.227 0.787,-1.84 2.177,0.875 4.333,1.806 6.466,2.792 -0.396,0.811 -0.792,1.622 -1.188,2.433 -0.594,1.216 -1.26,2.489 -1.992,3.822 0.839,0.326 1.505,0.614 1.999,0.852 0.651,0.314 1.301,0.663 1.942,1.047 0.379,-0.102 0.759,-0.202 1.139,-0.3 0.928,-1.992 1.985,-4.108 3.183,-6.345 C -2.442,4.117 -1.232,1.996 0,0"
               style="fill:#ffffff;fill-opacity:1;fill-rule:nonzero;stroke:none"
               id="path248" /></g><g
             id="g250"
             transform="translate(288.087,79.0371)"><path
               d="m 0,0 c -0.516,-1.543 -0.995,-3.169 -1.444,-4.882 -3.535,0.402 -8.837,1.071 -15.564,2.584 1.675,-2.661 3.351,-5.322 5.027,-7.983 -0.646,-0.832 -1.302,-1.66 -1.969,-2.482 -2.253,3.743 -4.506,7.486 -6.759,11.229 -0.476,0.121 -0.95,0.244 -1.423,0.37 0.811,1.472 1.547,2.94 2.213,4.402 5.107,-1.487 9.929,-2.347 14.33,-2.701 -1.806,2.421 -3.61,4.843 -5.416,7.265 0.468,0.809 0.926,1.622 1.372,2.438 C -7.008,6.857 -4.382,3.475 -1.757,0.092 -1.173,0.057 -0.587,0.026 0,0"
               style="fill:#ffffff;fill-opacity:1;fill-rule:nonzero;stroke:none"
               id="path252" /></g><g
             id="g254"
             transform="translate(297.6485,93.3594)"><path
               d="m 0,0 c -2.889,2.873 -6.066,3.293 -9.586,1.571 -0.677,-2.1 -0.235,-4.092 1.421,-5.982 2.631,-3.011 5.85,-3.711 9.61,-1.779 C 2.267,-3.814 1.749,-1.745 0,0 m 3.719,5.395 c 1.6,-1.459 2.328,-3.375 2.088,-5.761 -0.32,-2.964 -1.861,-5.82 -4.61,-8.356 -2.541,-2.341 -5.191,-3.447 -7.796,-3.362 -2.353,0.084 -4.195,1.023 -5.561,2.727 -1.435,1.79 -1.865,3.872 -1.403,6.237 0.505,2.521 1.95,4.814 4.341,7.055 2.278,2.136 4.596,3.292 7.1,3.443 C 0.122,7.52 2.076,6.893 3.719,5.395"
               style="fill:#ffffff;fill-opacity:1;fill-rule:nonzero;stroke:none"
               id="path256" /></g><g
             id="g258"
             transform="translate(315.7334,107.0938)"><path
               d="m 0,0 c 0.286,-0.732 0.568,-1.469 0.847,-2.209 -1.288,-1.685 -2.665,-3.455 -4.143,-5.295 -1.149,-1.433 -2.274,-2.818 -3.374,-4.165 -0.379,-0.091 -0.757,-0.18 -1.135,-0.266 -1.918,1.901 -3.705,3.581 -5.354,5.047 -1.677,1.49 -3.501,3.018 -5.464,4.595 0.011,0.408 0.018,0.815 0.024,1.223 0.483,0.471 0.991,1.024 1.524,1.661 0.482,0.576 0.966,1.206 1.445,1.89 1.679,-1.544 3.485,-3.114 5.425,-4.707 1.926,-1.581 3.768,-3.006 5.535,-4.266 0.217,0.269 0.433,0.54 0.648,0.811 C -2.609,-3.894 -1.265,-1.998 0,0"
               style="fill:#ffffff;fill-opacity:1;fill-rule:nonzero;stroke:none"
               id="path260" /></g><g
             id="g262"
             transform="translate(320.625,124.4326)"><path
               d="m 0,0 c -3.547,1.978 -6.731,1.374 -9.689,-1.469 -0.108,-2.325 0.84,-4.182 2.937,-5.56 3.333,-2.196 6.634,-1.899 9.769,1.242 C 3.19,-3.13 2.149,-1.202 0,0 m 2.187,6.681 c 1.93,-0.959 3.136,-2.673 3.528,-5.174 0.467,-3.112 -0.278,-6.5 -2.277,-9.922 -1.848,-3.159 -4.127,-5.089 -6.672,-5.808 -2.302,-0.64 -4.331,-0.265 -6.097,1.014 -1.857,1.347 -2.817,3.289 -2.984,5.796 -0.169,2.677 0.63,5.423 2.361,8.438 1.646,2.875 3.588,4.795 5.971,5.764 2.133,0.874 4.188,0.878 6.17,-0.108"
               style="fill:#ffffff;fill-opacity:1;fill-rule:nonzero;stroke:none"
               id="path264" /></g><g
             id="g266"
             transform="translate(332.4502,153.1807)"><path
               d="M 0,0 C 1.17,-2.766 2.59,-5.532 4.268,-8.325 4.247,-8.388 4.228,-8.449 4.207,-8.512 4.187,-8.574 4.157,-8.667 4.116,-8.79 4.094,-8.92 4.071,-9.016 4.052,-9.076 3.883,-9.708 3.663,-10.42 3.39,-11.215 c -1.404,-4.064 -3.325,-6.723 -5.561,-8.027 -2.011,-1.171 -4.092,-1.193 -6.234,-0.179 -2.066,0.98 -3.378,2.65 -4.023,4.975 -0.688,2.598 -0.399,5.521 0.789,8.975 0.43,1.254 0.864,2.298 1.315,3.131 0.674,0.231 1.347,0.468 2.021,0.713 0.038,-0.09 0.076,-0.181 0.114,-0.271 -0.458,-0.942 -0.886,-2.026 -1.296,-3.249 -0.736,-2.194 -0.853,-3.976 -0.306,-5.429 0.451,-1.193 1.336,-2.078 2.677,-2.641 1.554,-0.653 3.062,-0.602 4.516,0.21 1.693,0.946 3.046,2.826 3.958,5.648 0.108,0.333 0.222,0.749 0.341,1.25 -1.654,-0.788 -3.085,-1.557 -4.297,-2.329 -0.365,1.65 -0.889,3.339 -1.58,5.056 C -2.534,-2.254 -1.143,-1.114 0,0"
               style="fill:#ffffff;fill-opacity:1;fill-rule:nonzero;stroke:none"
               id="path268" /></g><g
             id="g270"
             transform="translate(329.1758,176.9366)"><path
               d="m 0,0 c 1.942,-2.586 3.825,-5.254 5.642,-8 0.439,-0.079 0.879,-0.157 1.319,-0.236 1.864,-0.335 3.921,-0.399 6.17,-0.15 -0.21,-1.276 -0.43,-2.525 -0.659,-3.747 -0.236,-1.258 -0.474,-2.453 -0.712,-3.59 -0.187,-0.237 -0.374,-0.474 -0.562,-0.71 -1.375,0.668 -3.372,1.291 -5.988,1.887 -2.501,-1.804 -5.049,-3.666 -7.651,-5.552 -0.205,0.169 -0.411,0.338 -0.617,0.506 -0.285,1.75 -0.767,3.523 -1.449,5.305 2.499,1.162 5.132,2.766 7.865,4.913 C 1.549,-6.78 -0.32,-4.262 -2.244,-1.822 -1.493,-1.229 -0.745,-0.621 0,0"
               style="fill:#ffffff;fill-opacity:1;fill-rule:nonzero;stroke:none"
               id="path272" /></g></g></g></g></g></svg>